<svg width="50" height="50" viewBox="0 0 50 50" fill="none" xmlns="http://www.w3.org/2000/svg">
<path d="M25 0C11.2151 0 0 11.2151 0 25C0 38.7849 11.2151 50 25 50C38.7849 50 50 38.7849 50 25C50 11.2151 38.7849 0 25 0ZM25 3.75C36.7583 3.75 46.25 13.2417 46.25 25C46.25 34.5817 39.9462 42.6531 31.25 45.3149V38.9209C31.25 36.5333 29.8741 34.4858 27.8857 33.4668C31.8083 32.7164 35.0373 30.4979 36.557 27.5092C38.0768 24.5205 37.7006 21.1288 35.5469 18.4009C36.1013 16.6943 36.7206 13.7008 35.249 11.3452C32.4117 11.3452 30.5808 13.2901 29.707 14.4995C28.2133 14.0088 26.6148 13.7543 25 13.75C23.3842 13.7514 21.784 14.0035 20.2881 14.4922C19.4122 13.2822 17.5828 11.3452 14.751 11.3452C13.0622 14.0485 14.1062 16.9557 14.6655 18.1421C12.3651 20.8596 11.8779 24.3072 13.362 27.367C14.8461 30.4268 18.1125 32.7092 22.1021 33.4741C20.4694 34.3156 19.2466 35.8426 18.8721 37.6953H17.229C15.6078 37.6953 14.9778 37.0365 14.1016 35.9253C13.2366 34.814 12.3065 34.0673 11.189 33.7573C10.5865 33.6936 10.1806 34.1519 10.7056 34.5581C12.4793 35.7656 12.6018 37.7419 13.313 39.0356C13.9605 40.2006 15.2871 41.25 16.7871 41.25H18.75V45.3149C10.0538 42.6531 3.75003 34.5817 3.75003 25C3.75003 13.2417 13.2417 3.75 25 3.75Z" fill="#BABABA"/>
</svg>
