<svg width="432" height="28" viewBox="0 0 432 28" fill="none" xmlns="http://www.w3.org/2000/svg">
    <path
        d="M203.47 1.47396C203.007 1.47396 202.554 1.47396 202.09 1.47396C202.064 0.796874 202.642 0.505208 203.043 0.229167C203.496 -0.0729173 204.116 -0.067707 204.158 0.786458C203.684 0.765626 203.455 0.99479 203.47 1.47396ZM203.47 1.47396C203.449 1.94792 203.684 2.17708 204.158 2.16146C204.158 1.93229 204.158 1.69792 204.158 1.47396C203.934 1.47396 203.699 1.47396 203.47 1.47396ZM321.413 8.02083C321.335 7.94271 321.241 7.79688 321.184 7.80208C321.022 7.83854 320.876 7.94271 320.725 8.02083C320.804 8.09896 320.876 8.17188 320.97 8.26562C321.111 8.1875 321.262 8.10417 321.413 8.02083ZM204.85 2.16146C205.882 2.09896 205.439 1.3125 205.538 0.786458C205.595 0.833334 205.699 0.838541 205.84 0.770833C205.975 0.703124 206.069 0.515626 206.153 0.369792C206.168 0.34375 206.017 0.229167 205.939 0.151042C205.809 0.260416 205.616 0.34375 205.554 0.484375C205.486 0.625 205.486 0.734376 205.538 0.786458C205.08 0.786458 204.621 0.786458 204.163 0.786458C204.163 1.01563 204.163 1.24479 204.163 1.47396C204.637 1.45312 204.871 1.6875 204.85 2.16146ZM204.163 2.85417C204.637 2.86979 204.871 2.64063 204.85 2.16667C204.621 2.16667 204.387 2.16667 204.163 2.16667C204.163 2.39063 204.163 2.625 204.163 2.85417ZM202.548 4.125C202.694 3.20312 204.21 4.02083 204.163 2.85417C203.475 2.85417 202.783 2.85417 202.095 2.85417C202.257 3.27083 201.694 3.94792 202.548 4.125ZM195.194 3.19271C195.371 3.3125 195.554 3.53125 195.715 3.52083C196.012 3.48437 196.288 3.3125 196.574 3.19271C196.397 3.07812 196.231 2.96354 195.97 2.79167C195.741 2.91146 195.465 3.05729 195.194 3.19271ZM324.33 8.83333C324.642 9.24479 325.106 9.17188 325.475 8.78125C324.179 8.07812 326.33 7.13021 324.856 6.08333C324.559 6.54688 324.267 7.14583 323.84 7.63021C323.173 8.40625 324.09 8.51042 324.33 8.83333ZM200.022 3.54167C199.97 3.59896 199.965 3.70312 200.038 3.84896C200.106 3.98437 200.293 4.07812 200.439 4.16146C200.47 4.17188 200.58 4.02604 200.658 3.94792C200.554 3.8125 200.47 3.625 200.324 3.5625C200.184 3.48958 200.08 3.49479 200.028 3.54688C200.35 2.22396 201.413 3.11979 202.095 2.86458C202.095 2.40104 202.095 1.94271 202.095 1.48438C201.632 1.48438 201.173 1.48438 200.715 1.48438C200.653 2.51042 199.861 2.06771 199.335 2.17188C199.439 2.68229 198.996 3.47917 200.022 3.54167ZM200.408 1.47917C200.715 1.57812 200.804 1.47917 200.72 1.15104C200.637 0.859375 200.637 0.541666 200.522 0.265625C200.434 0.0572917 200.194 0.0989593 200.095 0.385417C199.944 0.791667 199.97 1.19792 200.408 1.47917ZM197.225 1.77083C196.658 1.20833 195.965 1.54167 195.34 1.48958C195.064 1.46875 194.767 1.65104 194.481 1.74479C195.408 1.78125 196.33 2.63021 197.225 1.77083ZM199.335 2.16146C199.267 1.97917 199.231 1.78646 199.132 1.63021C199.017 1.44792 198.809 1.48958 198.725 1.76042C198.699 1.84896 198.918 2.02604 199.022 2.16146C199.126 2.16146 199.231 2.16146 199.335 2.16146ZM180.71 2.85938C181.548 3.00521 181.746 2.77604 181.501 1.91146C181.413 1.60417 181.408 1.26563 181.403 0.942708C181.387 0.463542 181.33 0.0833333 180.694 0.0833333C180.033 0.0833333 180.095 0.515625 180.001 0.958333C179.83 1.77604 179.121 1.38021 178.637 1.47396C178.637 1.70312 178.637 1.93229 178.637 2.16146C179.522 1.82292 179.981 2.72917 180.71 2.85938ZM184.85 1.78125C184.85 1.68229 184.85 1.57812 184.85 1.47396C184.668 1.53646 184.475 1.57292 184.319 1.67188C184.137 1.78646 184.179 1.99479 184.449 2.07812C184.538 2.10417 184.71 1.89063 184.85 1.78125ZM193.699 3.54688C194.819 3.56771 194.434 2.73958 194.501 2.16667C193.85 2.16667 193.205 2.16667 192.554 2.16667C192.08 2.16667 191.699 2.07292 191.741 1.47917C191.632 1.47917 191.528 1.45833 191.429 1.48438C191.069 1.55208 191.007 2.35417 190.554 1.95312C190.324 1.75 190.413 1.19271 190.361 0.791667C190.038 0.791667 189.705 0.833333 189.397 0.770833C189.22 0.734375 189.064 0.53125 188.923 0.380208C188.585 0.0104163 188.116 -0.0729167 187.83 0.260417C187.35 0.817709 188.569 0.890625 188.288 1.47917C189.21 2.16667 190.126 2.85938 191.048 3.54688C191.939 3.54167 192.819 3.52604 193.699 3.54688ZM337.137 7.90625C336.335 8.20833 335.361 7.01042 334.611 8.21875C335.491 8.44271 336.335 8.48958 337.137 7.90625ZM186.918 2.16146C186.939 1.6875 186.705 1.45312 186.231 1.47396C186.21 1.94792 186.444 2.17708 186.918 2.16146ZM190.653 4.14583C190.746 4.17188 190.923 3.95833 191.059 3.84896C191.059 3.75 191.059 3.64583 191.059 3.54167C190.876 3.60417 190.684 3.64063 190.528 3.73958C190.345 3.85417 190.387 4.0625 190.653 4.14583ZM186.517 3.45312C186.611 3.47917 186.783 3.26563 186.918 3.15625C186.918 3.05729 186.918 2.95312 186.918 2.84896C186.741 2.91146 186.543 2.94792 186.387 3.04688C186.21 3.16146 186.251 3.36979 186.517 3.45312ZM188.298 1.47396C187.84 1.70312 187.382 1.93229 186.918 2.16146C186.918 2.39063 186.918 2.625 186.918 2.84896C188.043 3.0625 188.507 2.59896 188.298 1.47396ZM169.309 1.48438C169.684 1.41667 170.153 1.60937 170.283 1.0625C170.298 1.01042 169.96 0.875 169.699 0.734375C169.491 0.854167 169.168 0.953124 169.012 1.16667C168.814 1.42708 168.975 1.54167 169.309 1.48438ZM185.705 0.796875C185.241 0.75 184.798 0.828124 184.85 1.47396C185.314 1.47396 185.767 1.47396 186.231 1.47396C186.309 1.05208 186.048 0.833334 185.705 0.796875ZM183.231 2.71354C183.335 2.69792 183.392 2.36458 183.47 2.17708C183.496 1.83854 183.423 1.53646 183.017 1.60417C182.908 1.625 182.819 1.95312 182.788 2.15104C182.731 2.47917 182.83 2.78646 183.231 2.71354ZM194.507 0.4375C194.33 0.322916 194.158 0.208334 193.903 0.0364583C193.668 0.15625 193.397 0.296875 193.126 0.4375C193.304 0.552083 193.486 0.776042 193.647 0.760417C193.944 0.729167 194.22 0.552083 194.507 0.4375ZM191.225 0.104167C190.762 0.057292 190.319 0.135417 190.366 0.78125C190.83 0.78125 191.288 0.78125 191.751 0.78125C191.824 0.364583 191.569 0.145833 191.225 0.104167ZM192.293 1.23958C192.387 0.833334 192.08 0.760417 191.751 0.786458C191.751 1.01563 191.751 1.24479 191.751 1.47396C191.939 1.40104 192.267 1.35417 192.293 1.23958ZM183.694 4.09896C183.856 4.0625 184.007 3.96354 184.158 3.88542C184.08 3.80729 184.007 3.72917 183.913 3.64062C183.767 3.71875 183.616 3.80208 183.47 3.88542C183.548 3.96354 183.642 4.11458 183.694 4.09896ZM211.059 0.786458C210.991 0.604168 210.955 0.411458 210.861 0.255208C210.741 0.0729163 210.538 0.114583 210.455 0.385417C210.423 0.473959 210.642 0.651042 210.746 0.786458C210.856 0.786458 210.955 0.786458 211.059 0.786458ZM252.34 1.91667C252.262 1.77083 252.179 1.61979 252.095 1.47396C252.017 1.55208 251.866 1.64583 251.876 1.69792C251.913 1.85938 252.017 2.01042 252.095 2.16146C252.173 2.08854 252.251 2.01042 252.34 1.91667ZM304.856 5.95312C304.778 5.875 304.684 5.72396 304.632 5.73438C304.47 5.77083 304.319 5.875 304.168 5.95312C304.246 6.03125 304.319 6.10417 304.413 6.19792C304.554 6.11979 304.71 6.03646 304.856 5.95312ZM312.574 7.90625C312.611 8.06771 312.71 8.21354 312.788 8.36979C312.866 8.28646 312.944 8.21354 313.033 8.125C312.955 7.97917 312.871 7.82812 312.788 7.67708C312.71 7.75521 312.559 7.84896 312.574 7.90625ZM250.241 3.07812C250.257 3.02604 250.106 2.92708 250.028 2.85417C249.944 3 249.861 3.15625 249.783 3.29688C249.871 3.39063 249.949 3.46875 250.028 3.54167C250.106 3.39063 250.205 3.23958 250.241 3.07812ZM306.673 6.85417C307.048 6.69271 307.319 6.28125 307.642 5.96875C307.439 5.83854 307.272 5.64583 307.085 5.63021C306.632 5.58854 306.21 5.64583 306.231 6.29167C306.241 6.61979 306.335 6.99479 306.673 6.85417ZM235.21 2.84896C235.397 2.77083 235.731 2.71875 235.751 2.60938C235.819 2.20833 235.517 2.10937 235.189 2.16667C234.991 2.19792 234.663 2.29167 234.642 2.39583C234.574 2.80729 234.871 2.88021 235.21 2.84896ZM243.345 1.69792C243.361 1.64583 243.21 1.55208 243.132 1.47396C243.048 1.61979 242.965 1.77083 242.887 1.91667C242.975 2.01042 243.059 2.08854 243.132 2.16146C243.205 2.01042 243.309 1.85938 243.345 1.69792ZM238.184 2.72396C238.345 2.6875 238.496 2.58333 238.647 2.50521C238.569 2.42708 238.496 2.35417 238.403 2.26042C238.257 2.33854 238.106 2.42188 237.96 2.50521C238.033 2.58333 238.126 2.73437 238.184 2.72396ZM278.731 4.91146C278.887 4.76563 279.423 5.25 279.324 4.60417C279.298 4.45833 279.017 4.25 278.871 4.25521C278.585 4.26563 278.309 4.41667 278.022 4.51562C278.132 4.83854 278.361 4.96875 278.731 4.91146ZM260.028 2.50521C259.85 2.39063 259.684 2.27604 259.423 2.10417C259.194 2.22396 258.918 2.36458 258.647 2.50521C258.824 2.625 259.007 2.84375 259.168 2.82812C259.465 2.79167 259.741 2.625 260.028 2.50521ZM269.679 4.22917C269.632 4.28646 269.626 4.39063 269.694 4.53125C269.762 4.66667 269.949 4.76042 270.095 4.84375C270.121 4.85938 270.236 4.70833 270.314 4.63021C270.205 4.5 270.121 4.30729 269.981 4.24479C269.84 4.17188 269.736 4.17188 269.679 4.22917C269.621 4.05208 269.585 3.85417 269.486 3.69792C269.371 3.52083 269.163 3.5625 269.08 3.82812C269.054 3.92188 269.267 4.09375 269.376 4.22917C269.475 4.22917 269.58 4.22917 269.679 4.22917ZM291.626 4.45833C291.637 4.40104 291.486 4.30729 291.408 4.22917C291.324 4.375 291.241 4.53125 291.163 4.67188C291.257 4.76563 291.335 4.84375 291.408 4.91667C291.486 4.76563 291.59 4.61979 291.626 4.45833ZM293.72 5.36458C293.642 5.22396 293.559 5.06771 293.475 4.92188C293.397 5 293.251 5.09375 293.262 5.15104C293.298 5.3125 293.397 5.45833 293.475 5.60938C293.554 5.53125 293.632 5.45833 293.72 5.36458ZM261.278 3.07812C261.293 3.02604 261.142 2.92708 261.064 2.85417C260.981 3 260.897 3.15625 260.819 3.29688C260.908 3.39063 260.991 3.46875 261.064 3.54167C261.137 3.39063 261.241 3.23958 261.278 3.07812ZM211.048 1.10938C211.111 1.48438 210.918 1.94792 211.47 2.08333C211.517 2.09375 211.653 1.76042 211.798 1.49479C211.679 1.28646 211.58 0.963541 211.361 0.807292C211.106 0.614582 210.991 0.776042 211.048 1.10938ZM312.705 6.85938C313.522 7.06771 314.413 7.21354 315.314 6.61458C314.47 6.25 313.731 5.875 312.955 5.63542C312.569 5.51563 311.923 5.47917 311.824 5.96354C311.778 6.20833 312.34 6.76563 312.705 6.85938ZM213.824 1.77604C213.923 1.47396 213.824 1.38021 213.496 1.46875C213.205 1.54688 212.887 1.55208 212.616 1.66146C212.403 1.75 212.449 1.98958 212.731 2.09375C213.142 2.24479 213.543 2.21875 213.824 1.77604ZM217.965 1.47396C218.158 1.39583 218.486 1.34375 218.507 1.23438C218.574 0.833334 218.272 0.734375 217.944 0.791667C217.746 0.822916 217.418 0.911457 217.397 1.02083C217.335 1.42708 217.632 1.5 217.965 1.47396ZM214.163 1.48438C214.814 1.36458 215.241 1.54167 215.22 2.34375C215.215 2.55208 215.481 3.15104 215.772 2.57292C216.095 1.92708 215.637 0.97396 216.517 0.494792C216.382 0.359376 216.246 0.223959 216.028 0C215.309 0.364583 214.528 0.697917 213.835 1.15625C213.6 1.31771 213.809 1.54167 214.163 1.48438ZM207.158 2.04167C207.444 2.13021 207.757 2.09896 207.939 2.11458C208.382 1.89063 208.392 1.6875 208.059 1.59896C207.778 1.52083 207.444 1.52604 207.158 1.59896C206.83 1.6875 206.83 1.9375 207.158 2.04167ZM289.996 5.59375C290.001 5.59896 290.194 5.32812 290.376 5.08854C289.564 5.07812 288.679 4.27604 288.309 5.64583C288.283 5.75 288.257 5.90625 288.314 5.96354C289.064 6.78125 289.278 5.07292 289.996 5.59375ZM209.58 1.91667C209.501 1.77083 209.418 1.61979 209.335 1.47396C209.257 1.55208 209.111 1.64583 209.116 1.69792C209.153 1.85938 209.257 2.01042 209.335 2.16146C209.408 2.08854 209.486 2.01042 209.58 1.91667ZM206.918 3.19271C206.84 3.11458 206.751 2.96875 206.694 2.97917C206.533 3.01563 206.382 3.11458 206.231 3.19271C206.309 3.27604 206.382 3.34896 206.475 3.4375C206.621 3.35937 206.772 3.27604 206.918 3.19271ZM232.309 1.01042C232.324 0.953125 232.173 0.864584 232.095 0.786458C232.012 0.932293 231.929 1.08333 231.85 1.22917C231.939 1.31771 232.017 1.40104 232.095 1.47396C232.173 1.31771 232.272 1.17188 232.309 1.01042ZM229.215 2.72396C229.376 2.6875 229.528 2.58333 229.679 2.50521C229.6 2.42708 229.528 2.35417 229.434 2.26042C229.288 2.33854 229.137 2.42188 228.991 2.50521C229.069 2.58333 229.163 2.73437 229.215 2.72396ZM233.72 1.91667C233.642 1.77083 233.559 1.61979 233.475 1.47396C233.397 1.55208 233.246 1.64583 233.257 1.69792C233.293 1.85938 233.397 2.01042 233.475 2.16146C233.554 2.08854 233.626 2.01042 233.72 1.91667ZM228.861 1.01042C228.876 0.953125 228.72 0.864584 228.642 0.786458C228.559 0.932293 228.475 1.08333 228.397 1.22917C228.491 1.31771 228.569 1.40104 228.642 1.47396C228.72 1.31771 228.824 1.17188 228.861 1.01042ZM221.059 2.85417C221.142 2.70833 221.225 2.55208 221.304 2.41146C221.215 2.31771 221.137 2.23958 221.059 2.16667C220.981 2.31771 220.882 2.46354 220.845 2.625C220.83 2.68229 220.981 2.77604 221.059 2.85417ZM223.1 2.13542C223.205 2.13021 223.288 1.86458 223.371 1.72917C223.137 1.32292 222.767 1.47396 222.46 1.48958C222.361 1.49479 222.179 1.81771 222.22 1.91667C222.397 2.3125 222.798 2.16146 223.1 2.13542ZM380.731 19.849C380.679 19.9948 380.72 20.0677 380.824 20.0885C380.856 19.9844 380.876 19.9062 380.923 19.776C380.856 19.7865 380.798 19.8229 380.731 19.849ZM362.069 14.776C362.074 14.776 362.074 14.776 362.069 14.776C362.033 14.6979 362.022 14.6458 361.996 14.5833C361.793 14.5885 361.496 14.4219 361.439 14.7292C361.637 14.8333 361.85 14.8906 362.069 14.776ZM384.939 18.7031C385.106 18.7917 385.304 18.875 385.533 18.9583C385.475 18.875 385.413 18.7917 385.361 18.7083C385.199 18.7031 385.022 18.6823 384.939 18.7031ZM355.21 11.8177C355.199 11.8229 355.194 11.8229 355.184 11.8281C355.194 11.875 355.194 11.9219 355.21 11.9688C355.21 12.0208 355.21 11.9167 355.21 11.8177ZM354.283 9.19792C353.871 9.10417 353.804 9.41146 353.824 9.74479C354.059 9.74479 354.288 9.74479 354.517 9.74479C354.439 9.55208 354.392 9.22396 354.283 9.19792ZM328.309 11.125C328.309 10.8958 328.309 10.6615 328.309 10.4375C328.074 10.4375 327.845 10.4375 327.621 10.4375C327.621 10.6667 327.621 10.8958 327.621 11.125C327.85 11.125 328.074 11.125 328.309 11.125ZM355.897 15.2604C356.126 15.2604 356.356 15.2604 356.585 15.2604C356.585 14.8021 356.585 14.3438 356.585 13.8802C356.35 13.8802 356.121 13.8802 355.897 13.8802C355.897 14.3438 355.897 14.8073 355.897 15.2604ZM177.324 2.91667C177.418 4.0625 178.59 3.68229 179.069 3.36458C179.71 2.9375 178.33 2.75 178.642 2.16146C178.304 2.18229 178.001 2.11458 178.1 1.70312C178.126 1.58854 178.455 1.54687 178.642 1.47396C178.548 0.916666 179.34 0.734375 179.272 0.4375C179.153 -0.052084 178.47 -0.046876 178.142 0.125C177.366 0.520833 176.246 0.385416 175.887 1.47396C177.153 1.19271 177.231 1.84896 177.324 2.91667ZM345.548 9.05729C345.512 8.20833 344.892 8.19792 344.439 8.5C344.038 8.77604 343.449 9.06771 343.481 9.74479C343.944 9.74479 344.403 9.74479 344.861 9.74479C344.845 9.26563 345.069 9.04167 345.548 9.05729ZM152.517 1.07292C152.491 1.16146 152.71 1.33854 152.814 1.47396C152.918 1.47396 153.017 1.47396 153.121 1.47396C153.059 1.29167 153.022 1.09896 152.923 0.942708C152.809 0.755208 152.6 0.802083 152.517 1.07292ZM97.0223 4.375C96.6109 4.28125 96.5431 4.58333 96.564 4.91667C96.7984 4.91667 97.0275 4.91667 97.2515 4.91667C97.1786 4.72917 97.1369 4.40104 97.0223 4.375ZM164.142 2.15104C164.345 2.11458 164.679 2.04167 164.699 1.93229C164.798 1.50521 164.481 1.45312 164.142 1.46875C163.918 1.47917 163.689 1.46875 163.47 1.46875C163.47 1.69792 163.47 1.93229 163.47 2.15625C163.694 2.16146 163.923 2.19271 164.142 2.15104ZM339.111 10.5781C338.699 10.4896 338.626 10.7917 338.653 11.125C338.882 11.125 339.111 11.125 339.34 11.125C339.267 10.9375 339.225 10.6094 339.111 10.5781ZM331.08 8.66667C331.147 8.80729 331.33 8.90104 331.481 8.97917C331.507 8.99479 331.616 8.84896 331.694 8.77083C331.59 8.63542 331.507 8.45312 331.366 8.38021C331.22 8.3125 331.116 8.3125 331.064 8.36979C331.137 7.95312 330.882 7.73438 330.543 7.69271C330.08 7.64063 329.637 7.71875 329.689 8.36979C330.147 8.36979 330.606 8.36979 331.064 8.36979C331.007 8.42188 331.007 8.53125 331.08 8.66667ZM155.736 4.6875C155.83 4.27604 155.522 4.20833 155.194 4.22917C155.194 4.45833 155.194 4.69271 155.194 4.91667C155.382 4.84375 155.715 4.80208 155.736 4.6875ZM158.642 4.22917C158.637 4.21875 158.637 4.21354 158.632 4.20833C158.585 4.21354 158.538 4.22917 158.491 4.22917C158.434 4.22917 158.538 4.22917 158.642 4.22917ZM218.647 11.1198C218.642 11.125 218.642 11.125 218.647 11.1198C218.642 11.125 218.647 11.125 218.647 11.1198C218.647 11.125 218.647 11.125 218.647 11.1198ZM337.236 13.3646C337.246 13.3646 337.257 13.3698 337.267 13.3698C337.257 13.3646 337.246 13.3646 337.236 13.3646ZM243.481 11.5938C243.429 11.7865 243.512 11.8698 243.705 11.8125C243.694 11.7083 243.673 11.625 243.673 11.5052C243.59 11.526 243.548 11.5625 243.481 11.5938ZM155.892 15.25C155.929 15.4531 156.001 15.7865 156.111 15.8073C156.538 15.9062 156.585 15.5833 156.574 15.25C156.564 15.0208 156.574 14.7969 156.574 14.5729C156.34 14.5729 156.111 14.5729 155.887 14.5729C155.882 14.8021 155.85 15.0312 155.892 15.25ZM382.798 17.3281C382.798 17.3333 382.798 17.3333 382.798 17.3281V17.3281ZM404.173 16.9896C404.319 17.0729 404.475 17.1562 404.616 17.2344C404.71 17.1406 404.788 17.0625 404.861 16.9896C404.71 16.9115 404.559 16.8073 404.397 16.7708C404.345 16.7604 404.251 16.9115 404.173 16.9896ZM430.324 26.6979C430.246 26.776 430.132 26.9219 430.111 26.9115C429.96 26.8333 429.778 26.7396 429.705 26.599C429.637 26.4583 429.637 26.3542 429.694 26.3021C429.262 26.224 429.048 26.4844 429.022 26.8438C428.986 27.3542 428.809 27.8958 428.283 27.651C426.106 26.625 423.58 27.0052 421.444 25.9375C420.653 25.5417 420.007 25.3698 419.335 25.9948C419.111 26.2031 418.934 26.3385 418.85 26.1354C418.283 24.7083 416.621 25.2708 415.783 24.4271C414.918 23.5625 414.382 23.0781 414.512 24.875C414.548 25.349 414.449 25.8021 413.83 25.2708C413.251 24.7812 412.361 24.7969 411.923 24.0573C411.673 23.6406 411.278 23.5104 410.767 23.5312C409.965 23.5729 409.314 23.5677 410.267 24.5104C410.418 24.6562 410.376 25.2188 410.215 25.401C409.835 25.8125 409.689 25.2396 409.528 25.0781C408.85 24.3854 408.246 23.7188 407.34 24.8229C407.194 25 406.606 24.776 406.392 24.9479C405.298 25.8177 406.069 22.5156 404.475 24.1562C403.908 24.7396 402.892 24 402.153 23.3333C401.517 22.7708 400.361 21.901 400.017 23.8177C399.923 24.3333 399.215 24.4479 398.949 24.1302C397.512 22.3906 395.189 23.375 393.517 22.2656C392.705 21.7344 391.684 22.6927 391.272 23.151C390.168 24.3854 389.142 22.5729 388.09 23.349C387.653 23.6667 387.304 22.8125 386.955 22.4635C386.736 22.2448 387.241 21.4792 386.434 21.6875C386.283 21.724 386.309 22.2865 386.173 22.5729C385.991 22.9531 385.569 22.7708 385.278 22.8802C384.533 23.1406 383.85 21.6354 383.111 22.8333C382.595 21.8229 381.173 21.8646 380.736 20.7865C380.679 20.6354 380.725 20.4115 380.824 20.1042C380.882 20.1094 380.929 20.1406 381.028 20.0938C381.168 20.026 381.257 19.8385 381.34 19.6927C381.356 19.6615 381.21 19.5521 380.923 19.7865C380.996 19.5781 380.804 19.6615 380.736 19.8021C380.72 19.8281 380.741 19.8385 380.731 19.8646C379.944 20.2083 379.569 21.5156 378.715 20.5156C378.512 20.2708 378.074 19.9688 378.022 20.4323C377.793 22.3542 376.658 21.5313 375.903 21.0781C375.22 20.6771 374.413 20.5938 373.981 20.8438C372.699 21.5781 371.699 21.3333 370.35 20.9115C369.251 20.5573 367.929 20.4948 367.048 19.7708C366.283 19.1406 365.116 19.9427 364.653 18.8542C363.923 19.2396 363.179 19.9271 362.501 18.776C362.179 19.0625 361.871 19.375 361.528 19.6302C361.324 19.7812 361.1 20.3854 360.819 19.8229C360.08 18.3385 358.996 19.4167 358.1 19.4479C356.949 19.4896 356.309 19.2917 356.569 17.9635C356.6 17.7969 356.392 17.5885 356.304 17.3958C356.168 17.5312 355.908 17.6771 355.918 17.7969C356.017 18.9635 355.085 18.901 354.569 18.6667C353.606 18.2292 352.533 18.5677 351.611 18.0365C351.153 17.776 350.356 16.6615 350.298 18.401C350.283 18.8802 349.793 18.4948 349.626 18.276C349.361 17.9375 349.001 17.9688 348.694 18.0312C346.47 18.5156 345.84 18.3958 344.179 17.0521C343.387 16.4115 342.819 17.3229 342.361 17.5469C341.147 18.151 340.949 18.3646 340.788 17.5C340.486 15.8646 339.939 17.4167 339.637 17.2969C338.35 16.7865 337.429 17.3333 336.262 17.8177C335.449 18.151 333.757 17.5521 333.116 16.8073C331.939 15.4323 330.668 16.1562 329.699 16.4271C328.512 16.7552 328.335 16.599 328.298 15.5104C328.272 14.75 328.637 13.9167 327.882 13.0573C327.585 13.4271 327.033 14.0365 327.08 14.0885C328.444 15.5729 326.97 16.1771 326.231 17.0104C325.876 17.3958 325.366 17.5469 325.074 17.151C324.158 15.8906 323.554 17.3125 322.804 17.3333C322.736 16.4583 322.205 16.5677 321.632 16.776C321.376 16.8698 321.293 17.4635 320.934 17.1302C320.757 16.9688 320.689 16.3906 320.824 16.2552C321.626 15.4688 321.429 15.349 320.408 15.1979C319.882 15.1198 319.59 14.0417 319.272 15.4896C319.095 16.3281 318.304 17.2135 316.996 16.1146C316.251 15.4948 314.85 16.2344 313.908 15.3073C313.653 15.0573 312.908 15.2188 312.382 15.6354C311.35 16.4635 311.048 15.8073 311.085 14.7969C311.1 14.4531 311.085 14.1198 310.751 13.9062C310.673 13.9688 310.574 14.026 310.517 14.1146C310.142 14.6615 310.746 15.474 310.038 15.9427C309.804 15.0469 308.293 15.651 308.262 14.3177C308.246 13.6927 307.012 13.7865 307.054 14.1979C307.205 15.6719 305.554 14.9896 305.324 15.8542C304.626 14.3958 303.21 16.5208 302.429 15.276C302.283 15.0521 301.465 15.5677 301.621 14.776C301.647 14.6458 302.21 14.6458 302.507 14.526C302.804 14.401 302.85 14.1615 302.632 14.0573C301.673 13.6042 300.434 14.2969 299.606 13.3021C299.283 13.625 298.934 13.9271 298.642 14.276C298.283 14.6927 298.007 14.401 298.012 14.1198C298.022 13.3698 297.689 13.0417 297.001 13.2188C296.475 13.349 296.715 13.9896 296.486 14.3229C296.382 14.474 296.111 14.4948 295.913 14.5729C295.84 14.3854 295.793 14.0521 295.684 14.0312C295.272 13.9375 295.205 14.2396 295.225 14.5729C294.085 14.8073 294.986 13.099 293.798 13.1354C293.106 13.151 292.173 12.0365 292.46 13.8333C292.554 14.4323 292.153 14.651 291.642 14.5625C290.767 14.4115 291.251 14.0625 291.564 13.75C291.642 13.6719 291.778 13.5729 291.767 13.5052C291.689 12.9688 292.012 12.3646 291.496 11.8646C290.684 12.3542 289.845 12.9844 289.241 13.5469C288.647 14.1094 288.72 14.8281 287.918 13.8281C287.225 12.9635 286.897 13.151 286.934 14.224C286.934 14.2865 286.543 14.4688 286.491 14.4219C286.163 14.1198 285.637 13.7917 285.611 13.4375C285.465 11.1979 284.548 13.849 284.194 13.1927C284.106 12.7708 284.46 12.1562 283.949 11.9635C283.481 11.7917 282.455 11.8229 282.423 11.9479C281.986 13.7188 280.559 13.526 279.632 12.9948C278.501 12.3438 277.538 12.8854 276.595 12.7552C275.048 12.5365 273.46 12.776 271.955 12.3177C271.637 12.2188 271.361 11.4635 271.116 12.3177C271.048 12.5625 271.236 12.9896 271.444 13.1667C271.694 13.375 272.475 12.9583 272.298 13.6562C272.173 14.1458 271.501 13.8385 271.074 13.8698C270.892 13.8854 270.522 13.7135 270.522 13.6406C270.663 10.849 268.564 12.0677 267.288 11.8229C267.179 11.7969 267.064 11.8177 266.944 11.8177C266.621 11.224 267.991 11.125 267.376 10.5729C266.866 10.1198 266.392 10.5937 266.028 11.0156C265.824 11.25 265.465 11.401 265.564 11.8177C264.533 12.4062 264.533 12.4062 263.496 11.8177C263.423 11.6302 263.376 11.2969 263.267 11.2708C262.856 11.1823 262.783 11.4844 262.809 11.8177C262.168 11.7083 261.418 12.1146 260.876 11.5885C259.725 10.474 259.522 11.2708 259.205 12.2708C259.048 12.7708 258.397 12.4219 257.981 12.5052C257.007 11.5469 255.939 11.0781 254.621 11.8125C254.543 11.8542 252.606 11.7969 252.475 11.8229C251.528 11.9688 250.72 11.0729 249.6 11.75C248.637 12.3281 247.241 11.7083 246.314 11.3646C244.689 10.7656 244.876 11.5469 244.882 12.5156C244.882 12.7396 244.882 12.9688 244.882 13.1927C244.21 13.0469 243.793 12.6406 243.731 11.8073C243.757 11.7969 243.767 11.8229 243.804 11.8021C243.944 11.7344 244.038 11.5469 244.121 11.401C244.132 11.375 243.986 11.2656 243.71 11.5C243.778 11.2917 243.59 11.375 243.517 11.5104C243.501 11.5469 243.522 11.5573 243.512 11.5885C242.903 11.8698 242.913 12.2813 242.783 12.6615C242.653 13.0469 242.267 13.3438 241.986 13.6719C241.923 13.75 241.762 13.8438 241.757 13.8385C240.647 12.5417 240.475 14.224 239.84 14.4271C239.715 14.4635 239.387 14.276 239.392 14.2292C239.517 13.3854 238.569 12.8646 238.793 11.8125C238.85 11.8177 238.892 11.8438 238.986 11.8021C239.121 11.7344 239.215 11.5469 239.298 11.401C239.309 11.375 239.163 11.2656 238.887 11.5C238.955 11.2917 238.767 11.375 238.699 11.5104C238.679 11.5469 238.699 11.5521 238.694 11.5833C237.397 12.1146 238.522 13.5 237.642 13.9062C237.366 14.0365 237.121 14.5208 236.923 14.4844C236.559 14.4167 236.621 13.9635 236.611 13.6302C236.59 13.2344 236.783 12.6406 236.21 12.6042C235.876 12.5781 236.043 13.3542 235.908 13.4219C234.986 13.8698 234.215 14.7865 233.033 14.5573C232.84 14.5208 232.564 14.3854 232.512 14.2292C232.397 13.8958 233.876 13.599 232.6 13.2188C231.814 12.9792 231.892 14.1302 231.736 14.1771C230.97 14.3906 230.028 13.9635 229.798 13.3854C229.512 12.6615 229.184 12.1615 228.335 11.901C228.548 11.8125 228.574 11.2188 228.751 10.9844C229.236 10.3594 228.501 10.4479 228.205 10.4479C227.731 10.4531 227.048 10.1771 226.965 11.026C226.918 11.5312 227.126 11.8438 228.074 11.8125C226.83 12.9062 226.819 12.9427 225.512 12.7292C225.304 12.6979 225.09 12.4271 225.038 12.724C224.699 14.6198 223.741 14.0781 222.663 13.3958C222.106 13.0469 222.028 13.7812 221.705 13.9844C220.658 14.6562 220.663 14.6875 219.356 13.5052C218.975 13.151 218.569 13.0156 218.184 13.3698C216.897 14.5365 215.731 13.7917 214.397 13.1927C214.345 13.1927 214.449 13.1927 214.548 13.1927C214.486 13.0156 214.449 12.8177 214.35 12.6615C214.236 12.4844 214.028 12.526 213.944 12.7917C213.918 12.8854 214.132 13.0573 214.397 13.1927C214.548 13.3073 214.6 13.4844 214.543 13.526C213.231 14.5469 211.366 13.0573 210.142 14.4948C209.611 13.5052 208.418 14.2448 207.819 13.6562C206.913 12.7552 205.866 13.375 204.908 13.2031C204.257 13.0885 204.257 13.5885 204.189 14.0625C204.142 14.4167 203.663 14.7812 203.517 14.5469C202.866 13.4844 200.944 14.7135 200.72 12.9115C200.663 12.4115 199.918 12.2917 199.658 12.625C199.199 13.2188 198.434 13.0625 197.955 13.5573C197.418 14.1146 196.59 14.1146 196.142 13.6823C195.22 12.7865 194.137 13.1146 193.246 13.2604C191.679 13.5104 190.194 14.125 188.642 13.2188C188.413 13.0833 188.033 13.1719 187.72 13.4427C187.022 14.0469 185.528 14.0938 184.918 13.5312C184.694 13.3229 185.179 12.5833 184.418 12.6771C184.304 12.6927 184.257 13.2552 184.173 13.5677C183.444 13.3594 182.772 13.526 182.132 13.8854C182.111 13.1198 182.288 12.0469 180.97 12.6719C179.783 13.2292 177.705 13.8802 176.199 13.8854C174.715 13.8906 173.147 13.6042 171.751 13.9635C170.257 14.349 168.908 15.1094 167.423 14.0365C167.356 13.9896 166.975 14.1771 166.975 14.2396C167.033 14.9219 166.85 15.3854 166.064 15.2552C165.47 15.151 165.684 14.5625 165.512 14.1979C165.278 13.7083 164.981 14.0417 164.903 14.3438C164.778 14.8281 164.871 15.7604 164.106 14.7812C163.444 13.9323 162.658 13.7917 161.715 13.8802C161.408 13.9115 158.142 14.8021 157.929 14.9896C157.246 15.5938 157.194 14.2396 156.611 14.5781C156.538 14.3906 156.491 14.0573 156.382 14.0365C155.97 13.9427 155.897 14.2448 155.923 14.5781C155.173 14.4792 154.304 14.8906 153.715 14.0938C153.538 13.8542 153.251 13.8698 153.246 14.1719C153.21 15.7865 151.804 14.5365 151.121 15.1771C150.59 15.6771 149.225 15.1458 148.382 15.9375C148.137 16.1615 147.783 15.8281 147.642 15.4896C147.528 15.1927 147.418 14.8906 147.309 14.5938C146.991 14.7969 146.965 15.1042 146.929 15.4479C146.918 15.6198 146.705 15.7708 146.58 15.9323C145.387 14.349 145.043 17.0156 144.434 16.4583C143.017 15.1667 141.043 16.8333 139.689 15.3333C139.278 14.875 138.715 15.5833 138.309 15.9688C137.996 16.2656 137.778 16.6562 137.22 16.6667C136.335 16.6823 136.304 15.0156 135.205 15.6667C134.642 15.9948 134.283 17.0938 133.486 15.9583C132.022 17.125 130.189 15.625 128.71 16.6198C127.986 17.1042 127.304 15.6719 127.137 16.2344C126.783 17.4323 126.512 17.4583 125.84 16.5625C125.397 15.9688 125.111 16.0729 124.59 16.5365C124.184 16.8906 123.522 17.0573 122.955 17.1042C122.345 17.1562 122.33 15.2969 121.257 16.4896C120.538 17.2969 119.918 15.4635 119.033 16.5C118.684 16.9062 117.522 16.6354 116.731 16.6406C116.199 16.6406 115.903 16.8177 115.903 17.4115C115.903 17.599 115.72 17.7865 115.621 17.974C113.757 16.2292 112.491 18.099 110.981 18.6771C110.376 18.9062 109.783 18.8021 109.616 17.7448C109.512 17.0938 108.59 16.9688 108.335 18.0208C108.387 17.9688 108.491 17.9635 108.632 18.0312C108.772 18.1042 108.856 18.2917 108.965 18.4219C108.887 18.5 108.772 18.6458 108.746 18.6354C108.6 18.5521 108.413 18.4635 108.345 18.3177C108.278 18.1771 108.278 18.0677 108.33 18.0156C106.918 17.4219 105.543 17.6719 104.095 17.9792C102.58 18.2969 100.903 17.6094 99.4494 18.3542C98.8609 18.651 98.7879 18.3385 98.4442 18.1667C97.9025 17.8958 97.34 17.849 97.2931 18.724C97.2567 19.3542 96.9806 19.5573 96.5744 19.0052C95.689 17.8073 94.8869 17.9948 94.5796 19.2865C94.1942 20.8958 93.7306 19.4688 93.3869 19.375C92.1734 19.0521 92.7723 20.7812 92.0223 20.6094C91.4286 20.474 91.2098 19.5365 90.4754 19.4167C90.2879 19.3802 89.9129 19.4948 89.8921 19.5885C89.59 21.125 88.9806 21.125 87.939 20.1198C87.6317 19.8229 87.1317 20.2188 86.7879 20.5729C86.4234 20.9531 86.0223 20.849 85.6265 20.5052C83.84 18.9427 83.7463 18.9635 82.1213 20.7812C81.2515 20.7396 80.314 21.0417 79.6733 20.0729C78.9494 18.9948 78.2254 19.3177 77.5431 20.1719C77.2671 20.5156 76.8869 21.0104 76.4494 20.75C75.4546 20.1615 74.5483 19.526 73.564 20.7135C72.7098 19.6406 71.9233 21.2083 70.9286 20.776C70.8817 20.776 70.9806 20.776 71.0848 20.776C71.0171 20.5938 70.9806 20.401 70.8817 20.2448C70.7671 20.0677 70.5588 20.1094 70.4754 20.375C70.4494 20.4688 70.6681 20.6406 70.9286 20.776C71.1317 21.4115 70.5171 21.6615 70.2723 21.4323C69.189 20.401 69.2411 21.7188 68.7411 21.9635C68.1108 22.2708 68.6421 20.4323 67.465 20.7812C67.1317 20.8802 66.8765 21.0521 66.9494 21.4635C67.0067 21.4115 67.1108 21.4115 67.2515 21.4792C67.3869 21.5469 67.4702 21.7396 67.5796 21.8646C67.5015 21.9427 67.3869 22.0938 67.3661 22.0781C67.215 21.9948 67.0275 21.9062 66.965 21.7656C66.8921 21.6198 66.8921 21.5208 66.9494 21.4635C66.3973 21.7448 66.2358 20.3542 65.34 21.2448C64.4598 22.1146 63.0588 20.5781 61.8817 21.4375C61.5952 21.6458 61.3348 20.5312 60.9233 21C60.0952 21.9375 58.9077 21.0312 58.1056 21.7031C57.1994 22.4635 56.1473 22.3958 55.3296 21.8542C53.8921 20.8958 53.6786 22.0781 53.1577 22.8438C53.215 22.7969 53.3192 22.7917 53.4598 22.8594C53.6004 22.9271 53.6838 23.1198 53.7931 23.2448C53.715 23.3281 53.6004 23.474 53.5744 23.4583C53.4286 23.375 53.2358 23.2865 53.1733 23.1458C53.1056 23 53.1056 22.8958 53.1577 22.8438C52.439 22.9896 52.0744 21.3281 51.189 22.4271C50.4546 23.3333 50.2515 21.8906 49.59 22.125C48.9025 22.375 48.1004 21.9375 47.4077 22.6667C46.9442 23.151 46.1056 23.349 45.4077 23.5052C45.0431 23.5833 44.5171 23.6927 44.5327 22.8646C45.0744 22.8333 45.6369 22.8906 45.5692 22.0938C45.5536 21.9062 45.4077 21.7344 44.6681 22.0052C44.7463 21.7604 44.564 21.9635 44.3661 22.2708C43.7515 22.8229 43.5848 23.0833 43.5119 23.3906C43.4598 23.599 43.4911 23.901 43.3608 24.0052C42.8661 24.3906 42.8348 23.8646 42.84 23.6302C42.8556 22.9323 42.2671 22.4062 41.9077 22.3646C41.3869 22.3073 40.439 22.651 40.3192 23.026C39.9911 24.099 39.4442 24.375 38.4077 24.2552C37.8817 24.1927 37.2202 23.9688 36.7827 24.4271C36.0379 25.224 35.9911 24.7448 35.9077 24.0573C35.8765 23.8229 35.84 23.4375 35.2983 23.776C33.4702 24.9271 31.5536 23.8958 29.6838 23.776C29.2046 23.7396 28.3608 23.3594 28.1317 23.5833C26.7983 24.901 24.7671 23.5833 23.5015 24.9167C21.0171 24.5469 18.6786 26.1771 16.2358 25.5521C15.1942 25.2812 14.4806 26.5521 13.2983 25.6823C12.3973 25.0052 11.2202 26.2396 10.2046 26.2031C9.53793 26.1771 8.99106 25.3333 8.91293 26.7188C8.8921 27.099 8.35043 26.9844 8.02231 26.9896C6.76189 26.9948 5.46502 26.8021 4.25147 27.0469C3.17335 27.2656 2.32439 26.1198 1.28272 26.7917C0.767097 27.1198 0.767098 26.6354 0.751472 26.3854C0.73064 25.8385 0.590014 25.2604 1.15772 24.8333C1.69418 24.4271 1.12647 24.25 0.912931 24.2552C0.110848 24.2656 -0.196444 23.7448 0.126472 23.2188C0.313974 22.9062 0.626472 21.6979 1.5171 22.6094C1.99106 23.0938 2.00147 22.4323 2.25668 22.3698C3.94939 21.9896 5.58481 21.4896 7.38168 21.3906C9.84001 21.2552 12.2827 20.5573 14.7254 20.0885C15.0796 20.0208 15.2775 19.776 15.2306 19.3646C15.1525 18.6615 14.8608 18.651 14.4754 19.1354C14.2098 19.4688 13.8765 19.3854 13.5483 19.4062C12.4546 19.4844 11.4338 19.5052 11.7515 17.875C11.8192 17.5521 11.5223 17.2552 11.09 17.3333C11.8452 15.1927 14.2775 15.8229 15.5952 14.6042C16.4546 16.1094 17.34 14.7865 18.1213 14.5312C18.9129 14.2812 19.3921 13.5 20.4077 14.4531C21.1473 15.1458 22.0015 13.3438 23.1629 13.8385C23.3817 13.9375 23.6681 13.0938 24.2306 13.1979C26.8452 13.7083 29.2827 12.4844 31.8713 12.401C33.9754 12.3281 36.2463 12.224 38.2202 11.1927C39.0015 10.7865 39.7202 12.474 40.3869 11.1406C41.2983 11.5365 41.5431 10.1562 42.5171 10.3958C43.3869 10.6094 44.465 10.1667 45.2411 10.5C46.4598 11.0208 47.1213 9.03646 48.3036 10.0521C49.0015 10.6458 50.09 8.85938 50.6942 10.3906C50.8556 10.2604 51.0171 10.125 51.1838 10L53.6733 9.0625C56.2775 9.45833 58.7567 8.42188 61.314 8.39062C62.7671 8.36979 63.9806 7.42708 65.5171 7.63021C66.9129 7.8125 68.3765 7.91146 69.7411 7.04688C70.1473 6.78646 71.064 6.72396 71.6786 7.22396C71.8765 7.38542 72.064 7.91146 72.3973 7.39062C73.3244 5.96875 74.7931 6.13021 76.0796 6.34375C77.9442 6.65104 79.5431 5.67188 81.314 5.57292C83.0692 5.47917 84.9286 6.21875 86.5952 5C86.7671 4.875 87.0275 5.47396 87.6421 5.70833C87.6317 5.76563 87.6056 5.81771 87.6525 5.91667C87.7202 6.05208 87.9077 6.14583 88.0536 6.22917C88.0796 6.24479 88.1942 6.09375 87.9598 5.81771C88.1629 5.88542 88.0796 5.69792 87.9442 5.63021C87.9234 5.61979 87.9181 5.63542 87.9077 5.63021C87.7098 4.98958 88.0744 4.90104 88.4911 4.9375C89.5952 5.03125 90.7931 4.94792 91.7671 5.35938C92.59 5.71875 92.9234 5.48438 93.4338 5.02083C93.9129 4.57812 95.8556 4.57812 96.6056 4.92708C96.6786 5.11458 96.7254 5.44792 96.84 5.47396C97.2515 5.5625 97.3192 5.26042 97.2931 4.92708C97.9859 4.96354 98.2879 3.88542 99.0588 4.25C100.975 5.14583 102.668 4.3125 104.429 3.68229C105.569 3.27604 106.033 4.11458 106.241 5.01562C106.387 5.64583 106.835 5.76042 107.215 5.58854C107.986 5.23438 107.189 4.99479 107.069 4.69271C106.856 4.11458 106.824 3.47917 107.668 3.56771C109.314 3.75521 111.054 2.95833 112.611 4.03125C113.751 3.09375 115.309 4.57812 116.403 3.40104C117.158 2.57812 117.934 2.70833 118.746 3.27604C118.84 3.34375 118.939 3.52083 118.986 3.50521C120.111 3.10938 121.298 2.99479 122.439 2.74479C123.501 2.51563 124.147 3.88542 125.403 2.96875C126.126 2.4375 127.679 2.01563 128.861 2.85417C130.267 1.63021 131.783 3.38021 133.059 2.79167C134.455 2.14583 135.84 2.29687 137.251 2.125C138.059 2.02083 138.538 2.56771 139.366 2.91667C139.345 2.97917 139.324 3.04167 139.382 3.15625C139.449 3.29167 139.632 3.38542 139.783 3.46354C139.809 3.47917 139.918 3.32812 139.684 3.05208C139.892 3.11979 139.809 2.93229 139.673 2.86458C139.663 2.85938 139.663 2.86979 139.653 2.86458C139.47 2.10938 139.991 1.71354 140.345 1.61458C140.866 1.47396 140.569 2.34375 140.819 2.54167C141.626 3.17708 142.824 3.00521 143.46 2.03646C143.772 1.55729 144.043 1.54167 144.481 1.46354C145.434 1.28125 146.371 3.17708 147.319 1.47917C148.434 1.60417 149.465 1.40104 150.465 0.828125C150.746 0.666668 151.403 0.5625 151.689 1.05729C151.939 1.48437 151.809 1.92188 151.392 2.21354C151.126 2.39583 151.059 2.56771 151.288 2.6875C151.465 2.78646 151.731 2.90625 151.892 2.83854C152.512 2.58854 153.048 2.21875 153.168 1.47917C153.861 1.52604 154.1 0.65625 154.918 0.744792C155.97 0.859376 156.126 1.04167 155.309 1.75C155.429 1.89063 155.533 2.11979 155.679 2.14583C155.996 2.20833 156.501 2.22396 156.543 1.86979C156.746 -0.135416 158.21 1.07812 159.085 0.869792C159.314 0.812501 159.413 1.18229 159.189 1.30729C159.007 1.40104 158.778 1.40104 158.58 1.48438C158.387 1.5625 158.215 1.68229 158.028 1.78125C158.173 1.91146 158.324 2.14583 158.47 2.14583C159.444 2.14583 160.429 2.35417 161.22 1.40104C161.903 0.567708 162.793 0.0937494 163.512 1.47917C163.319 1.55208 162.986 1.59896 162.965 1.70833C162.871 2.11979 163.179 2.1875 163.512 2.16667C163.278 2.625 163.048 3.08333 162.819 3.54688C162.387 3.31771 161.965 3.05729 161.512 2.86979C161.361 2.8125 161.074 2.90104 160.955 3.02083C160.574 3.41146 161.163 3.44792 161.236 3.68229C161.298 3.86979 161.371 4.05208 161.439 4.23438C161.106 4.23438 160.559 4.35938 160.475 4.21354C159.871 3.16667 159.34 4.09375 158.673 4.21354C158.616 4.04167 158.58 3.84896 158.486 3.70312C158.371 3.52083 158.163 3.5625 158.08 3.83333C158.054 3.92708 158.267 4.09896 158.533 4.23438C158.637 5.08854 157.996 5.10938 157.569 4.78125C157.106 4.41667 157.236 3.58854 156.621 3.16667C156.215 2.89583 155.861 2.71354 155.46 2.98958C155.012 3.30729 155.319 3.81771 155.236 4.23438C155.043 4.30729 154.71 4.35417 154.689 4.46354C154.595 4.875 154.903 4.94792 155.236 4.92188C155.314 5.34375 155.054 5.57292 154.71 5.59896C154.059 5.64583 153.361 5.75 152.934 5.03125C151.522 5.65104 152.142 2.88542 150.637 3.65104C150.965 4.5 151.225 5.36458 151.095 6.29688C150.241 6.17188 150.059 3.75 148.574 5.57812C148.392 5.80208 147.679 5.51563 147.251 5.63021C146.449 5.84375 146.21 4.78646 145.496 4.92188C144.767 5.06771 144.554 5.93229 143.955 6.13021C143.423 6.3125 142.668 6.71354 142.413 5.59896C142.434 5.59896 142.434 5.60938 142.449 5.60417C142.83 5.57812 143.423 5.73438 143.392 5.19792C143.376 4.88021 142.84 4.58854 142.33 4.94792C142.199 4.39063 142.043 4.64063 142.142 4.95312C142.158 5.00521 142.147 5.07292 142.126 5.15104C141.71 5.55729 141.397 5.53125 141.142 5.61979C139.788 6.08854 138.465 6.69792 137.085 5.63542C136.939 5.52083 136.533 5.88542 136.611 6.29167C136.663 6.23958 136.772 6.23438 136.908 6.30208C137.048 6.375 137.132 6.5625 137.241 6.69271C137.163 6.77083 137.048 6.91667 137.022 6.90104C136.876 6.82292 136.689 6.73438 136.621 6.59375C136.554 6.45312 136.554 6.34375 136.611 6.29167C136.267 6.29167 135.793 6.14583 135.606 6.31771C134.585 7.25 133.793 7.76563 133.861 5.70833C133.887 4.83333 133.309 4.91146 132.736 4.90625C131.793 4.90625 131.272 5.46875 131.121 6.29167C130.965 7.14583 130.361 7.20833 129.97 6.82292C129.184 6.04688 128.668 6.20833 128.012 6.92188C127.856 7.09375 127.34 7.11979 127.111 6.78125C126.491 5.85417 126.267 6.79688 125.892 7.02083C125.611 7.18229 125.543 7.40625 125.762 7.48958C126.173 7.64583 126.121 8.50521 127.001 8.07812C127.538 7.81771 128.33 7.875 129.017 7.72396C130.001 7.51562 131.069 7.73438 132.09 7.65625C134.293 7.48958 136.574 8.21875 138.684 7C138.939 6.85417 139.455 6.84375 139.684 7C142.408 8.86458 144.965 6.78125 147.58 6.61979C148.434 6.56771 149.132 6.07812 149.96 6.81771C150.382 7.1875 151.043 7.16667 151.106 6.29167C151.757 6.42188 152.522 5.96354 153.059 6.54688C153.731 7.28125 154.767 7.21875 155.257 6.91667C156.861 5.93229 158.538 6.46875 160.173 6.28646C162.371 6.03646 164.522 5.26563 166.778 5.60417C167.85 5.76563 168.965 5.24479 170.012 6.15625C170.809 6.84896 171.418 5.45312 172.413 5.54167C174.465 5.72917 176.543 5.59896 178.606 5.59896C179.293 5.59896 179.981 5.57812 180.668 5.59896C181.251 5.61979 181.444 5.34375 181.465 4.79167C181.475 4.56771 181.767 3.92187 181.965 4.45833C182.824 6.73958 184.653 5.13542 185.944 5.57812C188.856 4.09375 191.949 5.23438 194.944 4.95312C195.929 6.05729 196.871 4.8125 197.835 4.80208C200.731 4.76042 203.72 5.61458 206.543 4.29688C207.444 5.19271 208.621 4.73958 209.663 4.9375C210.58 5.10938 211.054 4.34375 211.793 4.21354C211.741 4.16146 211.736 4.05208 211.804 3.91146C211.876 3.77083 212.064 3.6875 212.194 3.57812C212.272 3.65625 212.418 3.77083 212.408 3.79688C212.324 3.94271 212.236 4.13021 212.09 4.19792C211.949 4.26563 211.845 4.26563 211.793 4.21354C211.871 4.40625 211.903 4.71875 212.043 4.77604C213.642 5.44792 215.225 4.26563 216.944 4.82292C218.533 5.33854 220.111 4.375 221.585 3.6875C221.918 3.53125 222.283 3.41146 222.512 3.57292C223.205 4.07812 223.569 5.21875 224.804 4.23438C225.71 3.52083 226.345 4.83854 227.236 4.95312C227.991 5.05729 228.34 3.98958 228.897 4.46354C229.585 5.04688 230.048 5.03125 230.585 4.375C231.293 3.51042 231.668 5.04687 232.517 4.59896C233.267 4.20312 234.267 4.98958 235.262 4.26562C235.965 3.76042 237.022 5 238.126 4.26042C238.679 3.89063 239.767 4.41667 240.465 4.13542C241.225 3.83854 241.668 5.59375 242.366 4.30208C244.574 5.53646 246.991 4.48958 249.251 4.92188C250.626 5.1875 251.83 3.88542 252.986 4.45833C254.335 5.11979 255.653 4.91146 256.934 4.82812C258.559 4.72917 260.34 5.60938 261.835 4.21875C261.991 4.07292 262.46 4.11979 262.746 4.44271C263.116 4.85938 263.533 5.26042 264.001 5.55729C264.903 6.14062 266.21 5.95312 266.939 5.10938C267.106 4.91667 266.923 4.30208 267.278 4.26562C267.595 4.23437 267.679 4.6875 267.653 5.03125C267.559 6.13021 267.632 6.19271 268.793 5.67708C269.892 5.1875 271.371 5.64063 272.606 4.90625C273.251 4.52604 273.804 5.22917 274.366 5.55208C274.637 5.70833 274.642 5.63021 275.298 4.48958C275.559 4.04167 276.314 3.98958 276.403 4.38542C276.679 5.59375 277.616 6.15104 278.387 6.92708C278.731 6.20833 279.048 5.54167 279.371 4.86979C280.689 6.36979 280.689 6.36979 284.137 5.97917C283.725 5.10938 282.96 5.73438 282.387 5.57812C281.866 5.4375 281.251 5.75521 280.564 5.07292C282.757 4.74479 284.705 4.36979 286.09 6.42188C286.96 7.71875 287.59 6.26563 288.335 6.25C288.257 6.67708 288.528 6.82292 288.866 6.94271C289.486 7.17188 289.908 6.09375 290.163 6.4375C290.918 7.44792 291.215 6.05208 291.725 6.26042C292.21 6.45312 292.647 6.80208 293.142 6.92188C293.715 7.05729 294.179 5.90625 295.007 6.88021C295.304 7.22917 296.298 7.01563 297.304 7.11979C297.309 7.16667 297.283 7.1875 297.309 7.25C297.382 7.39063 297.564 7.47917 297.71 7.5625C297.741 7.57812 297.85 7.43229 297.616 7.15104C297.741 7.19271 297.746 7.14583 297.71 7.07812C299.121 5.91667 299.762 6 300.725 7.41667C300.882 7.64583 300.767 8.30208 301.048 8.25C301.585 8.15625 301.434 7.55729 301.429 7.14062C301.423 6.78646 301.449 6.41667 301.793 6.28125C302.215 6.10938 301.965 6.26042 301.981 6.51042C302.106 8.66146 303.528 6.875 304.168 7.28646C305.043 7.84375 305.798 8.28125 306.918 7.67708C307.705 7.25521 308.382 7.92188 308.929 8.55208C309.08 8.72917 309.293 9.26563 309.642 8.73958C310.908 6.82292 311.528 8.5625 312.314 9.21354C313.257 9.99479 313.595 9.94271 313.804 8.49479C313.97 7.35417 314.658 7.70312 315.262 7.63542C315.824 7.58333 316.017 8.08854 316.319 8.39062C317.418 9.48438 318.757 9.78125 320.246 9.71354C321.012 9.68229 321.871 9.45312 322.403 10.3177C322.996 9.77604 323.699 9.71354 324.486 9.67708C326.647 9.59375 326.767 9.42188 326.97 7.10938C326.986 6.89583 327.048 6.6875 327.1 6.43229C327.689 6.17187 327.793 6.79688 328.048 7.03125C328.647 7.59375 327.673 7.63021 327.663 7.98958C327.632 8.78646 327.653 9.59375 327.653 10.3958C327.163 10.4844 326.491 10.099 326.283 10.8958C326.236 11.0833 326.272 11.3594 326.376 11.5104C326.751 12.0417 326.84 11.3854 327.074 11.3073C327.267 11.2448 327.46 11.1562 327.653 11.0833C327.725 11.2708 327.772 11.6042 327.882 11.6302C328.293 11.7188 328.361 11.4167 328.34 11.0833C328.528 11.0104 328.861 10.9635 328.882 10.8542C328.975 10.4427 328.673 10.3698 328.34 10.3958C328.199 9.83333 329.58 9.34896 328.434 8.64062C328.356 8.58854 329.262 8.41146 329.72 8.32812C330.028 9.50521 330.923 9.58333 331.955 9.77604C332.72 9.91667 333.356 10.9427 334.121 9.79167C335.231 10.1771 336.309 10.474 336.871 8.91146C337.423 9.80729 337.554 10.8802 338.689 11.0885C338.762 11.276 338.809 11.6094 338.918 11.6302C339.33 11.724 339.397 11.4219 339.376 11.0885C339.715 11.0885 340.074 11.1719 340.376 11.0625C340.736 10.9375 340.751 10.6406 340.413 10.3958C340.069 10.151 340.194 9.67188 340.429 9.75C341.835 10.2031 340.996 8.11979 342.153 8.30208C342.554 8.36979 342.778 8.51042 342.819 8.85417C342.866 9.3125 342.876 9.75521 343.517 9.70312C342.689 10.526 343.278 11.4948 343.179 12.3906C343.059 13.4687 343.736 14.2396 343.679 15.3542C344.929 14.1094 344.882 14.1302 344.283 12.849C344.022 12.2969 344.173 11.8021 344.986 11.7552C345.58 11.7135 345.809 11.2031 345.106 11.125C342.908 10.8854 345.58 10.0677 344.897 9.70312C345.371 9.71875 345.6 9.48958 345.585 9.01562C346.017 8.9375 346.163 9.20833 346.278 9.55208C346.366 9.85417 346.189 10.6719 346.876 10.099C348.335 8.88542 349.725 9.40625 351.126 10.1094C351.366 10.2292 351.574 10.4271 351.606 10.2188C351.918 8.05208 353.225 10.3542 353.866 9.70833C353.939 9.89583 353.986 10.2292 354.095 10.25C354.507 10.3438 354.574 10.0417 354.554 9.70833C355.804 10.0104 355.085 10.9792 355.215 11.7865C355.048 11.8438 354.856 11.8802 354.71 11.974C354.528 12.0885 354.569 12.2969 354.84 12.3802C354.929 12.4062 355.106 12.1927 355.241 11.9323C356.83 11.3542 355.205 9.67188 356.319 9.04688C356.934 9.74479 356.449 10.5833 356.637 11.3281C356.715 11.6406 356.96 11.8854 357.283 11.4688C357.35 11.375 360.491 10.5625 360.595 10.5833C360.856 10.6354 360.887 11.3385 361.324 10.8542C361.975 10.1406 362.949 10.0417 363.371 10.6927C364.158 11.9167 362.585 11.5885 362.168 12.0625C361.199 13.1667 361.163 13.1615 360.074 12.1198C359.772 11.8333 359.528 11.7917 359.397 12.1667C359.288 12.4792 359.366 12.849 359.376 13.1927C359.397 13.6146 359.168 13.7917 358.793 13.8438C358.413 13.901 358.153 13.7396 357.996 13.4062C357.861 13.125 358.262 12.3854 357.46 12.7031C357.288 12.7708 357.335 13.3177 357.184 13.5885C357.1 13.7344 356.814 13.7604 356.616 13.8438C356.543 13.6562 356.496 13.3229 356.387 13.3021C355.975 13.2083 355.903 13.5104 355.929 13.8438C354.725 13.026 353.574 12.6667 352.543 14.1146C352.387 14.3333 352.1 14.7135 351.85 14.224C351.684 13.901 350.923 13.9115 351.314 13.2708C351.439 13.0677 352.106 12.7604 351.522 12.6094C350.439 12.3229 349.778 11.8698 349.637 10.6927C349.595 10.3333 349.054 10.2969 348.778 10.4167C348.001 10.7656 348.741 10.9948 348.882 11.2969C349.179 11.9583 349.501 12.625 349.689 13.3281C349.767 13.625 349.455 13.9219 349.028 13.849C348.955 13.6615 348.908 13.3281 348.798 13.3021C348.387 13.2135 348.319 13.5156 348.34 13.849C347.658 13.7917 347.465 14.4375 347.689 14.7031C348.163 15.2708 349.543 15.8021 349.59 15.5677C349.949 13.9531 350.475 14.526 351.392 15.0938C351.996 15.4635 353.147 15.5677 353.621 15.0208C354.637 13.8542 355.168 15.2083 355.923 15.224C355.996 15.4167 356.043 15.7448 356.153 15.7708C356.564 15.8646 356.637 15.5573 356.611 15.224C357.647 15.8958 358.673 13.9688 359.705 15.2188C359.824 15.0521 360.028 14.8906 360.048 14.7135C360.21 13.0104 360.746 14.2917 361.465 14.6875C361.455 14.7344 361.434 14.7708 361.439 14.8542C361.465 15.2344 361.304 15.8281 361.845 15.7969C362.163 15.7812 362.455 15.2448 362.095 14.7344C362.653 14.6042 362.403 14.4479 362.09 14.5469C362.069 14.5521 362.048 14.5417 362.022 14.5417C361.621 13.5 362.861 14.0573 363.142 13.2396C363.236 12.9688 363.59 12.0885 364.33 12.901C365.038 13.6875 365.215 14.4167 364.475 15.2135C364.272 15.4271 363.413 14.9635 363.731 15.7292C363.913 16.1615 364.35 16.7188 365.043 16.6042C365.481 16.526 367.054 13.8281 366.871 13.4323C366.694 13.0469 366.21 13.3021 365.981 13.1406C365.356 12.6823 364.663 12.2031 364.892 11.2292C364.939 11.0208 364.949 10.7969 365.043 10.6094C365.173 10.349 365.366 10.3854 365.517 10.6875C366.486 12.5729 367.705 11.2656 368.83 10.9323C369.022 10.8698 369.132 10.5469 369.324 10.4792C369.757 10.3229 370.262 10.3125 370.392 10.8698C370.491 11.3021 370.429 11.7865 369.757 11.7917C369.267 11.7917 368.84 11.8854 369.392 12.474C369.767 11.1094 370.809 14.6667 371.163 12.224C371.262 11.5781 372.231 10.599 372.934 11.1615C374.007 12.0104 375.048 10.4531 376.043 11.4948C376.887 12.3698 378.293 11.2812 379.22 12.026C379.679 12.3906 379.788 12.2292 380.231 12.0365C381.251 11.5885 382.423 11.5052 383.423 12.0938C383.965 12.4115 384.257 12.5 384.876 12.2031C386.272 11.5365 385.246 12.8958 385.58 13.1667C384.548 13.224 384.996 14.0208 384.892 14.5469C384.225 14.6719 383.653 15.0938 383.71 15.7083C383.751 16.1458 384.481 15.849 384.892 15.9271C384.746 16.1875 384.569 16.4375 384.465 16.7135C384.205 17.3646 383.793 18.0677 384.97 18.6823C384.955 18.6823 384.923 18.6875 384.918 18.6979C384.788 19.0729 385.059 19.3177 385.371 19.3594C385.653 19.3958 385.944 19.25 385.569 18.9323C386.1 18.7604 385.866 18.6562 385.533 18.6823C385.491 18.6875 385.444 18.6823 385.392 18.6823C384.903 17.9583 384.689 17.3073 385.694 17.2969C386.319 17.2865 387.001 17.5469 387.887 16.7812C386.689 16.6458 385.673 16.5677 384.892 15.9323C384.892 15.4687 384.892 15.0104 384.892 14.5521C385.923 14.4896 385.481 13.6979 385.58 13.1719C386.731 12.2031 388.111 12.4635 389.423 12.5C390.72 12.5312 392.179 12.0312 393.147 13.4792C393.616 14.1771 394.59 14.0625 395.012 13.8073C396.293 13.0208 397.413 14.1458 398.611 13.875C399.179 13.75 399.304 14.1458 399.397 14.6667C399.543 15.4688 400.09 15.4115 400.632 15.0104C401.757 14.1823 402.949 14.4167 404.106 14.8542C404.314 14.9323 405.689 15.4948 404.08 15.9844C402.955 16.3281 403.835 17.5885 403.481 18.3177C403.215 18.8594 402.278 19.1302 403.746 19.4479C405.257 19.776 406.725 20.1302 408.293 20.0938C409.038 20.0729 409.824 19.8229 410.548 20.4844C410.939 20.8438 411.783 19.875 412.251 20.7604C413.126 20 413.793 21.8594 414.856 20.8906C415.606 20.2031 416.251 21.6615 417.251 21.4948C418.793 21.2448 420.335 21.4219 421.59 22.6094C422.09 23.0833 422.194 22.0417 422.538 22.2344C422.923 22.4531 423.189 22.875 423.533 23.1771C423.689 23.3229 424.028 23.5312 424.059 23.5C425.267 22.2135 426.465 23.7344 427.632 23.5C428.97 23.2344 429.663 24.9948 431.179 24.0104C430.788 25.2083 429.804 25.4167 429.731 26.2708C429.788 26.2188 429.887 26.2188 430.033 26.2865C430.137 26.3802 430.22 26.5625 430.324 26.6979ZM352.97 12.4844C353.241 12.5 353.538 12.2812 353.819 12.1667C353.496 11.8646 353.184 11.5625 352.845 11.2396C352.736 11.3073 352.481 11.3854 352.465 11.5052C352.397 11.9323 352.361 12.4427 352.97 12.4844ZM153.121 3.88542C153.199 3.96875 153.278 4.04167 153.366 4.13021C153.512 4.05208 153.663 3.96875 153.814 3.88542C153.731 3.80729 153.642 3.66146 153.585 3.67188C153.423 3.70833 153.278 3.80729 153.121 3.88542ZM133.913 3.78646C133.991 3.92708 134.074 4.08333 134.158 4.22917C134.236 4.15104 134.382 4.05729 134.376 4.00521C134.335 3.84375 134.236 3.69271 134.158 3.54167C134.08 3.61458 134.007 3.69271 133.913 3.78646ZM13.0171 17.0885C12.9338 16.9427 12.8504 16.7917 12.7723 16.6406C12.689 16.724 12.5431 16.8125 12.5536 16.8698C12.59 17.0312 12.689 17.1771 12.7723 17.3333C12.8452 17.2552 12.9233 17.1771 13.0171 17.0885ZM18.5431 19.849C18.2619 19.2865 17.9181 18.7917 17.2358 18.724C17.0536 18.7083 16.8608 18.8698 16.6733 18.9427C16.9181 19.5312 17.2671 20.0156 17.9546 20.0729C18.1369 20.0938 18.3348 19.9375 18.5431 19.849ZM20.0119 19.0573C19.9338 18.9792 19.84 18.8333 19.7827 18.8438C19.6213 18.8802 19.4754 18.9792 19.3244 19.0573C19.4025 19.1354 19.4754 19.2083 19.5692 19.3021C19.7098 19.2188 19.8608 19.1354 20.0119 19.0573ZM35.7463 16.8698C35.7567 16.8125 35.6056 16.7188 35.5275 16.6406C35.4442 16.7917 35.3608 16.9427 35.2827 17.0885C35.3765 17.1771 35.4546 17.2552 35.5275 17.3333C35.6056 17.1771 35.7098 17.0312 35.7463 16.8698ZM57.9442 13.5417C57.8661 13.4635 57.7723 13.3125 57.7202 13.3229C57.5588 13.3594 57.4077 13.4635 57.2567 13.5417C57.3348 13.6198 57.4077 13.6927 57.5015 13.7865C57.6421 13.7083 57.7983 13.625 57.9442 13.5417ZM60.6056 13.625C60.5223 13.4948 60.439 13.224 60.3296 13.2188C60.0275 13.1927 59.6317 13.0417 59.4494 13.4375C59.4077 13.5312 59.5952 13.8542 59.689 13.8646C60.0015 13.8802 60.3713 14.0312 60.6056 13.625ZM64.8452 12.8542C64.7671 12.7708 64.689 12.6979 64.6004 12.6094C64.4546 12.6875 64.3036 12.7708 64.1577 12.8542C64.2358 12.9323 64.3244 13.0781 64.3817 13.0677C64.5379 13.0312 64.689 12.9271 64.8452 12.8542ZM67.6004 19.7448C67.5223 19.6667 67.4494 19.5938 67.3556 19.5C67.215 19.5781 67.0588 19.6615 66.9129 19.7448C66.9911 19.8229 67.0848 19.974 67.1369 19.9635C67.2983 19.9271 67.4494 19.8229 67.6004 19.7448ZM91.7411 17.3229C91.6629 17.1302 91.6056 16.8021 91.5015 16.7812C91.0952 16.7135 91.0015 17.0156 91.0536 17.3438C91.09 17.5417 91.1786 17.8698 91.2879 17.8906C91.6942 17.9531 91.7671 17.6562 91.7411 17.3229ZM93.8088 10.0885C93.7306 10.0104 93.6577 9.9375 93.564 9.84375C93.4181 9.92188 93.2671 10.0052 93.1213 10.0885C93.1994 10.1667 93.2931 10.3177 93.3452 10.3073C93.5067 10.2708 93.6577 10.1667 93.8088 10.0885ZM101.241 9.51562C101.34 8.80729 100.705 9.09896 100.356 9.06771C100.048 9.04688 99.5327 8.90104 99.4754 9.28646C99.3713 10 100.022 9.65104 100.345 9.75C100.673 9.70833 101.194 9.90625 101.241 9.51562ZM104.153 9.40104C103.975 9.28646 103.809 9.17188 103.548 9C103.319 9.11979 103.043 9.26042 102.772 9.40104C102.949 9.51563 103.132 9.73958 103.293 9.72396C103.59 9.69271 103.871 9.51563 104.153 9.40104ZM113.298 7.92188C111.772 7.36458 110.382 8.21875 109.366 7.10938C109.35 7.09375 108.647 7.55208 108.46 7.89583C108.241 8.3125 108.762 8.23438 108.96 8.39062C110.481 9.59896 111.778 8.8125 113.298 7.92188ZM115.059 7.86979C114.814 7.64583 114.595 7.44792 114.408 7.23438C113.996 6.77604 113.871 7.25521 113.835 7.46354C113.751 7.88021 113.798 8.35938 114.392 8.35417C114.569 8.34896 114.767 8.25 115.059 7.86979ZM115.194 7.68229C115.309 7.51562 115.439 7.3125 115.585 7.04688C115.455 7.15104 115.262 7.23438 115.199 7.38021C115.132 7.52604 115.137 7.63021 115.194 7.68229ZM115.804 7.26562C115.814 7.23958 115.71 7.19271 115.465 7.67188C115.475 7.66667 115.475 7.67708 115.491 7.67188C115.626 7.59375 115.72 7.41146 115.804 7.26562ZM116.569 8.36979C116.392 8.43229 116.199 8.46875 116.038 8.56771C115.861 8.68229 115.903 8.89062 116.168 8.97396C116.262 9 116.434 8.78125 116.569 8.36979ZM118.439 8.08854C118.611 7.71354 117.897 6.94271 117.585 6.34375C118.033 7.34896 116.809 7.5 116.606 8.36979C117.257 8.29167 118.173 8.6875 118.439 8.08854ZM124.814 7.47917C124.804 7.22917 124.6 6.79688 124.215 7.27083C124.142 7.35938 124.054 7.51042 123.975 7.51042C123.21 7.51042 123.064 6.49479 122.507 6.43229C121.788 6.35937 122.366 8.01563 121.095 7.71354C120.6 7.59375 119.97 7.47917 118.809 8.36979C121.111 8.36979 122.804 8.38542 124.501 8.32812C124.626 8.32812 124.83 7.77083 124.814 7.47917ZM125.533 3.88542C125.611 3.96875 125.689 4.04167 125.778 4.13021C125.923 4.05208 126.074 3.96875 126.225 3.88542C126.142 3.80729 126.054 3.66146 125.996 3.67188C125.835 3.70833 125.689 3.80729 125.533 3.88542ZM143.371 14.8177C143.278 14.7292 143.199 14.6458 143.126 14.5729C143.048 14.7292 142.944 14.875 142.908 15.0365C142.892 15.0938 143.048 15.1875 143.126 15.2604C143.205 15.1146 143.288 14.9635 143.371 14.8177ZM208.173 12.2812C208.137 12.1198 208.033 11.9688 207.955 11.8177C207.876 11.8958 207.804 11.9688 207.71 12.0625C207.788 12.2031 207.871 12.3594 207.955 12.5052C208.033 12.4271 208.184 12.3333 208.173 12.2812ZM209.679 9.40104C209.6 9.32292 209.507 9.17708 209.449 9.1875C209.288 9.22396 209.142 9.32292 208.991 9.40104C209.069 9.47917 209.142 9.55208 209.236 9.64583C209.382 9.56771 209.528 9.48438 209.679 9.40104ZM212.439 12.8542C212.288 12.7708 212.137 12.6719 211.975 12.6354C211.923 12.6198 211.83 12.7708 211.751 12.8542C211.897 12.9323 212.048 13.0156 212.194 13.099C212.288 13.0052 212.361 12.9271 212.439 12.8542ZM215.251 11.0417C215.08 10.7865 214.965 10.6094 214.85 10.4375C214.736 10.724 214.559 11 214.528 11.2969C214.507 11.4583 214.736 11.6406 214.85 11.8177C214.991 11.5469 215.132 11.2708 215.251 11.0417ZM218.647 11.3229C218.658 11.3646 218.632 11.3802 218.653 11.4271C218.725 11.5677 218.908 11.6615 219.059 11.7448C219.085 11.7552 219.132 11.6354 218.647 11.3229ZM219.278 11.526C219.173 11.3906 219.09 11.2031 218.944 11.1406C218.804 11.0677 218.694 11.0677 218.642 11.125C218.574 10.9479 218.543 10.7552 218.444 10.599C218.324 10.4167 218.121 10.4583 218.038 10.7292C218.017 10.7917 218.132 10.901 218.528 11.1302C218.569 11.1302 218.6 11.1302 218.637 11.1302C218.626 11.1406 218.647 11.1771 218.642 11.1927C218.814 11.2865 219.017 11.3906 219.278 11.526ZM220.585 9.97396C220.6 9.91667 220.444 9.82292 220.366 9.75C220.283 9.89583 220.199 10.0469 220.121 10.1927C220.215 10.2865 220.293 10.3646 220.366 10.4375C220.444 10.2865 220.548 10.1354 220.585 9.97396ZM224.064 11.5729C223.986 11.4271 223.903 11.276 223.819 11.1302C223.741 11.2083 223.59 11.3021 223.6 11.3542C223.637 11.5156 223.741 11.6667 223.819 11.8177C223.897 11.7396 223.97 11.6667 224.064 11.5729ZM231.059 11.8021C230.981 11.6146 230.923 11.2812 230.819 11.2656C230.418 11.1927 230.319 11.5 230.376 11.8281C230.408 12.026 230.501 12.3542 230.606 12.3698C231.012 12.4427 231.085 12.1406 231.059 11.8021ZM241.996 12.2604C241.918 12.1198 241.835 11.9635 241.751 11.8177C241.673 11.8958 241.522 11.9896 241.533 12.0417C241.569 12.2031 241.673 12.3542 241.751 12.5052C241.83 12.4271 241.903 12.3542 241.996 12.2604ZM270.371 10.7812C270.293 10.7031 270.22 10.6302 270.126 10.5365C269.986 10.6146 269.835 10.6979 269.684 10.7812C269.762 10.8594 269.856 11.0104 269.913 11C270.074 10.9635 270.22 10.8542 270.371 10.7812ZM274.413 11.375C274.319 11.2812 274.241 11.2031 274.168 11.1302C274.09 11.2812 273.991 11.4271 273.949 11.5885C273.939 11.6458 274.09 11.7396 274.168 11.8177C274.246 11.6667 274.33 11.5156 274.413 11.375ZM284.757 7.43229C284.679 7.29167 284.595 7.14063 284.512 6.98958C284.434 7.06771 284.288 7.16146 284.298 7.21875C284.335 7.38021 284.434 7.52604 284.512 7.67708C284.585 7.59896 284.668 7.52604 284.757 7.43229ZM294.512 8.02083C294.434 7.94271 294.34 7.79688 294.283 7.80208C294.121 7.83854 293.975 7.94271 293.824 8.02083C293.903 8.09896 293.975 8.17188 294.069 8.26562C294.21 8.1875 294.366 8.10417 294.512 8.02083ZM299.34 8.02083C299.262 7.94271 299.189 7.86979 299.095 7.77604C298.955 7.85417 298.804 7.9375 298.653 8.02083C298.731 8.09896 298.824 8.25 298.882 8.23958C299.038 8.20312 299.184 8.09896 299.34 8.02083ZM308.861 12.7448C308.84 12.6406 308.507 12.5833 308.319 12.5052C307.981 12.4792 307.684 12.5521 307.751 12.9531C307.772 13.0573 308.1 13.151 308.298 13.1823C308.626 13.2448 308.929 13.1458 308.861 12.7448ZM315.074 14.1146C315.09 14.0573 314.939 13.9635 314.861 13.8854C314.778 14.0365 314.694 14.1875 314.616 14.3281C314.705 14.4219 314.783 14.5 314.861 14.5729C314.939 14.4219 315.038 14.276 315.074 14.1146ZM319.903 12.0417C319.918 11.9896 319.762 11.8958 319.684 11.8177C319.6 11.9635 319.517 12.1198 319.439 12.2604C319.533 12.3542 319.611 12.4323 319.684 12.5052C319.762 12.3542 319.866 12.2031 319.903 12.0417ZM324.856 14.9219C324.778 14.8438 324.684 14.6927 324.632 14.7031C324.47 14.7396 324.319 14.8438 324.168 14.9219C324.246 15 324.319 15.0729 324.413 15.1667C324.564 15.0833 324.71 15.0052 324.856 14.9219ZM329.559 14.1146C329.574 14.0573 329.418 13.9635 329.34 13.8854C329.257 14.0365 329.173 14.1875 329.095 14.3281C329.189 14.4219 329.267 14.5 329.34 14.5729C329.418 14.4219 329.522 14.276 329.559 14.1146ZM330.278 12.2604C330.199 12.1198 330.116 11.9635 330.033 11.8177C329.955 11.8958 329.809 11.9896 329.819 12.0417C329.856 12.2031 329.955 12.3542 330.033 12.5052C330.106 12.4271 330.189 12.3542 330.278 12.2604ZM331.548 11.8177C331.616 11.8177 331.689 11.8177 331.757 11.8177C331.694 11.6354 331.653 11.4427 331.559 11.2865C331.444 11.1042 331.236 11.1458 331.153 11.4167C331.132 11.4688 331.236 11.5781 331.548 11.8177ZM331.746 12.1823C331.793 12.5469 331.637 12.9844 332.163 13.1094C332.21 13.1198 332.272 12.8542 331.746 12.1823ZM332.496 12.526C332.376 12.3177 332.278 11.9948 332.064 11.8333C331.856 11.6875 331.741 11.7604 331.736 11.9583C331.929 12.1094 332.168 12.2812 332.496 12.526ZM333.267 11.349C333.304 11.5104 333.408 11.6615 333.486 11.8125C333.564 11.7344 333.71 11.6406 333.699 11.5885C333.663 11.4271 333.564 11.276 333.486 11.125C333.408 11.2031 333.251 11.2969 333.267 11.349ZM333.824 13.5417C333.673 13.4635 333.528 13.3594 333.366 13.3229C333.309 13.3073 333.215 13.4635 333.137 13.5417C333.283 13.625 333.439 13.7083 333.58 13.7865C333.673 13.6927 333.746 13.6198 333.824 13.5417ZM340.699 13.724C340.528 13.1771 339.97 12.4219 339.444 12.5833C338.642 12.8281 337.991 13.1562 337.278 12.5104C337.278 12.7708 337.215 13.1615 337.236 13.3646C336.944 13.2865 336.668 13.2083 336.314 13.1146C336.475 12.9583 337.257 12.5 337.194 12.1979C337.08 11.5833 336.309 11.8333 335.804 11.8333C335.194 11.8229 335.147 12.3073 335.225 12.7292C335.267 12.9531 335.444 13.1302 337.241 13.3698C337.251 13.4271 337.267 13.474 337.293 13.4896C338.246 13.9115 339.236 14.276 340.241 14.5469C340.496 14.6146 340.71 14.3073 337.272 13.375C338.059 13.4688 339.137 13.5885 340.699 13.724ZM342.158 12.5885C342.038 12.3594 341.897 12.0833 341.757 11.8125C341.637 11.9896 341.418 12.1719 341.434 12.3333C341.465 12.6302 341.637 12.9062 341.757 13.1927C341.871 13.0208 341.986 12.849 342.158 12.5885ZM347.595 12.8229C347.616 12.5208 347.762 12.1458 347.361 11.9167C347.225 11.9948 346.96 12.0781 346.949 12.1823C346.929 12.4844 346.772 12.8854 347.173 13.0625C347.267 13.1094 347.59 12.9219 347.595 12.8229ZM357.965 16.9896C357.887 16.9115 357.814 16.8385 357.72 16.7448C357.574 16.8229 357.423 16.9062 357.278 16.9896C357.356 17.0677 357.449 17.2135 357.501 17.2083C357.663 17.1667 357.814 17.0625 357.965 16.9896ZM372.444 15.7812C372.356 15.1719 371.845 15.3125 371.418 15.2552C370.585 15.1302 370.272 15.7917 369.267 16.6458C370.366 16.6458 370.897 16.6146 371.429 16.6562C372.09 16.7031 372.554 16.5521 372.444 15.7812ZM379.324 15.0625C379.34 14.9323 379.09 14.7604 378.965 14.6042C378.866 14.7917 378.783 14.9948 378.653 15.1562C377.715 16.3125 377.434 16.276 376.58 15.0104C376.298 14.599 375.908 14.2552 375.47 13.7812C374.897 15.224 375.382 15.9479 376.444 16.6875C377.298 17.2812 378.35 16.4375 379.022 17.3177C379.699 16.6458 379.225 15.8125 379.324 15.0625ZM381.137 17.3021C380.736 17.2031 380.283 17.0885 379.705 16.9531C380.241 17.2083 380.71 17.276 381.137 17.3021ZM381.762 13.1927C381.84 13.1146 381.986 13.0208 381.981 12.9688C381.944 12.8073 381.84 12.6562 381.762 12.5052C381.684 12.5833 381.533 12.6771 381.543 12.7292C381.58 12.8958 381.684 13.0417 381.762 13.1927ZM383.21 17.9479C383.22 17.9479 383.241 17.9323 383.064 17.8646C383.111 17.8906 383.163 17.9219 383.21 17.9479ZM383.429 17.7344C383.324 17.599 383.241 17.4115 383.095 17.3438C382.955 17.276 382.845 17.276 382.798 17.3333C382.71 16.6823 383.001 15.9844 382.46 15.2188C381.903 15.9219 381.278 16.5052 382.637 17.3281C382.689 17.3333 382.741 17.3281 382.793 17.3333C382.778 17.3438 382.798 17.3906 382.798 17.4167C382.981 17.5156 383.173 17.6198 383.429 17.7344ZM388.439 14.8021C388.475 14.9635 388.58 15.1094 388.658 15.2604C388.736 15.1823 388.882 15.0938 388.871 15.0365C388.835 14.875 388.736 14.7292 388.658 14.5729C388.58 14.651 388.429 14.7448 388.439 14.8021ZM389.059 17.25C388.887 16.9948 388.772 16.8177 388.658 16.6406C388.543 16.9271 388.366 17.2083 388.335 17.5C388.314 17.6615 388.543 17.849 388.658 18.026C388.793 17.75 388.939 17.4792 389.059 17.25ZM395.074 17.5573C394.272 17.8646 393.304 16.6615 392.548 17.8698C393.429 18.099 394.267 18.1458 395.074 17.5573ZM401.465 17.1823C401.251 17 401.262 16.3333 400.84 16.8906C400.418 17.4427 399.871 17.3438 399.34 17.3229C398.684 17.2969 398.611 17.7396 398.668 18.1927C398.741 18.8021 399.246 18.6927 399.679 18.7188C400.788 18.7708 401.137 18.0104 401.465 17.1823ZM402.85 16.0365C402.731 15.8073 402.595 15.5365 402.449 15.2604C402.335 15.4375 402.116 15.625 402.126 15.7865C402.158 16.0781 402.335 16.3594 402.449 16.6406C402.564 16.4688 402.684 16.2917 402.85 16.0365ZM415.908 23.0417C415.918 23.0833 415.887 23.099 415.913 23.151C415.981 23.2865 416.168 23.3802 416.314 23.4635C416.335 23.474 416.382 23.3646 415.908 23.0417ZM416.533 23.25C416.423 23.1198 416.34 22.9271 416.199 22.8646C416.054 22.7969 415.949 22.7969 415.892 22.849C415.83 22.6719 415.798 22.4792 415.694 22.3229C415.58 22.1458 415.371 22.1875 415.288 22.4531C415.272 22.5156 415.387 22.6302 415.783 22.8542C415.819 22.8542 415.85 22.8542 415.887 22.8542C415.882 22.8698 415.897 22.901 415.892 22.9167C416.064 23.0052 416.272 23.1198 416.533 23.25ZM415.897 22.8438C415.897 22.849 415.897 22.849 415.897 22.8438V22.8438ZM238.658 11.5885C238.611 11.7344 238.658 11.8021 238.762 11.8177C238.783 11.7135 238.804 11.6146 238.85 11.5052C238.767 11.5208 238.72 11.5573 238.658 11.5885ZM132.533 5.85417C132.611 6 132.694 6.15104 132.778 6.29688C132.856 6.21875 133.001 6.13021 132.991 6.07292C132.955 5.91146 132.856 5.76042 132.778 5.60938C132.705 5.68229 132.621 5.76042 132.533 5.85417ZM161.397 4.22917C161.84 5.45312 162.673 5.00521 163.382 4.61458C163.637 4.46875 164.272 4.19792 163.96 3.75521C163.793 3.52083 163.184 3.59896 162.778 3.53646C162.72 4.57292 161.923 4.13021 161.397 4.22917ZM142.376 5.60417C142.335 5.42708 142.309 5.21875 142.293 4.94792C142.22 5.04167 142.158 5.08854 142.09 5.15104C142.038 5.375 141.944 5.61979 142.376 5.60417ZM297.684 7.11458C297.663 7.07292 297.626 7.02604 297.574 7C297.34 6.89063 297.257 6.98438 297.278 7.16146C297.382 7.17188 297.486 7.17188 297.59 7.1875C297.621 7.16146 297.647 7.14583 297.684 7.11458ZM44.314 22.276C44.2671 22.3594 44.2098 22.4427 44.1577 22.5365C43.9963 22.8281 44.1473 22.8854 44.4754 22.8698C44.4754 22.8698 44.4754 22.8698 44.4806 22.8698C44.4858 22.651 44.5223 22.3802 44.6213 22.0156C44.4963 22.1094 44.4181 22.1875 44.314 22.276ZM87.8661 5.61979C87.7046 5.55729 87.6213 5.59896 87.6004 5.70833C87.7046 5.74479 87.7931 5.80208 87.9181 5.8125C87.8817 5.72917 87.8869 5.68229 87.8661 5.61979ZM139.616 2.86458C139.449 2.78646 139.361 2.82812 139.33 2.91667C139.434 2.96354 139.528 3.01563 139.647 3.05208C139.621 2.97917 139.632 2.92708 139.616 2.86458ZM349.001 13.8854C348.772 13.8854 348.538 13.8854 348.314 13.8854C348.387 14.0781 348.434 14.4062 348.543 14.4323C348.955 14.526 349.022 14.2188 349.001 13.8854ZM228.762 13.3229C228.6 13.3594 228.455 13.4635 228.304 13.5417C228.382 13.6198 228.455 13.6927 228.548 13.7865C228.689 13.7083 228.84 13.625 228.991 13.5417C228.918 13.4635 228.819 13.3125 228.762 13.3229ZM160.71 14.9219C160.788 15 160.882 15.1458 160.939 15.1354C161.1 15.099 161.246 15 161.397 14.9219C161.319 14.8438 161.246 14.7708 161.153 14.6771C161.012 14.7552 160.861 14.8385 160.71 14.9219ZM254.725 13.2188C254.439 13.2292 254.163 13.3854 253.882 13.4792C253.996 13.8021 254.225 13.9323 254.59 13.875C254.751 13.724 255.283 14.2135 255.184 13.5677C255.158 13.4219 254.876 13.2135 254.725 13.2188ZM84.2827 20.5573C84.2671 20.6094 84.4181 20.7083 84.4963 20.7812C84.5796 20.6354 84.6629 20.4792 84.7411 20.3385C84.6525 20.2448 84.5744 20.1667 84.4963 20.0938C84.4181 20.2448 84.3192 20.3906 84.2827 20.5573ZM251.762 13.8802C251.423 13.8542 251.126 13.9271 251.194 14.3333C251.21 14.4427 251.538 14.5312 251.741 14.5625C252.064 14.6198 252.371 14.526 252.304 14.1198C252.288 14.0156 251.949 13.9635 251.762 13.8802ZM246.939 14.2083C246.96 14.3177 247.215 14.3958 247.298 14.4427C247.647 14.1146 247.965 13.8281 248.288 13.5312C248.001 13.4219 247.705 13.1979 247.434 13.2188C246.84 13.2708 246.871 13.7812 246.939 14.2083ZM244.908 13.1979C244.866 13.724 244.288 13.849 244.231 14.2135C244.189 14.4635 244.616 14.6042 244.955 14.5781C245.548 14.526 245.554 14.1146 245.543 13.6719C245.413 13.3698 244.918 13.0938 244.908 13.1979ZM82.7254 20.776C82.5119 20.7969 82.1317 20.7188 82.1108 20.7917C81.9754 21.1615 82.2515 21.4115 82.564 21.4531C82.84 21.4896 83.1369 21.3385 83.4338 21.2708C83.2931 20.8542 83.064 20.7448 82.7254 20.776ZM9.91293 18.724C10.4286 18.6615 11.0588 18.8438 11.0536 17.9479C11.1421 16.9792 10.2983 16.8646 9.67335 16.6719C9.10564 16.4948 8.97543 16.9792 8.97543 17.4635C8.97543 18.1146 8.84522 18.8438 9.91293 18.724ZM166.804 3.14583C167.033 3.43229 166.048 3.57292 166.429 4.05729C166.668 4.36979 167.267 4.82812 167.335 4.77604C168.621 3.69271 170.626 4.26562 171.741 2.84896C170.564 2.90625 169.684 2.375 168.986 1.46875C168.762 1.46875 168.418 1.5625 168.33 1.45312C167.47 0.40625 166.663 1.45833 165.866 1.54688C165.444 1.58854 165.356 2.29167 165.71 2.625C165.981 2.89583 166.574 2.86458 166.804 3.14583ZM171.741 2.85417C171.512 2.38021 171.179 1.92187 171.074 1.41667C170.856 0.354167 171.361 -0.182291 172.324 0.114583C173.538 0.484375 174.699 1.01562 175.882 1.47396C176.022 2.0625 177.168 2.95312 175.418 2.98958C175.34 2.98958 175.267 3.34375 175.194 3.53646C175.246 3.48438 175.35 3.47917 175.491 3.55208C175.632 3.61979 175.715 3.80729 175.824 3.9375C175.746 4.01563 175.632 4.16667 175.611 4.15104C175.46 4.06771 175.272 3.97917 175.21 3.83854C175.137 3.69271 175.137 3.59375 175.194 3.53646C174.512 3.48958 174.262 4.51042 173.46 4.23438C173.168 4.13021 172.637 4.38021 172.585 3.98958C172.501 3.29688 173.168 3.67187 173.47 3.51562C173.861 3.31771 173.778 2.9375 173.423 2.86979C172.882 2.78125 172.309 2.85417 171.741 2.85417ZM172.439 1.125C172.283 1.04687 172.137 0.947917 171.975 0.911458C171.918 0.895834 171.824 1.04687 171.746 1.125C171.897 1.20833 172.048 1.29167 172.194 1.36979C172.283 1.28125 172.356 1.20312 172.439 1.125ZM48.2879 23.8854C48.465 24 48.6473 24.224 48.8088 24.2083C49.1056 24.1771 49.3817 24 49.6681 23.8854C49.4911 23.7708 49.3244 23.651 49.064 23.4844C48.8348 23.6042 48.5588 23.7396 48.2879 23.8854ZM73.9077 21.7135C73.9858 21.8594 74.0692 22.0104 74.1525 22.1562C74.2306 22.0781 74.3817 21.9844 74.3713 21.9323C74.3348 21.7708 74.2306 21.6198 74.1525 21.4688C74.0744 21.5469 74.0015 21.6198 73.9077 21.7135ZM8.18897 18.4688C8.11085 18.3229 8.02751 18.1719 7.94418 18.026C7.86606 18.1042 7.71501 18.1927 7.72543 18.25C7.76189 18.4115 7.86606 18.5573 7.94418 18.7135C8.0171 18.6354 8.09522 18.5573 8.18897 18.4688ZM41.6942 24.2396C41.5483 24.1719 41.4442 24.1719 41.3869 24.224C41.3244 24.0521 41.2931 23.8542 41.189 23.6979C41.0744 23.5208 40.8661 23.5625 40.7827 23.8281C40.7567 23.9219 40.9702 24.099 41.0796 24.2292C41.1786 24.2292 41.2827 24.2292 41.3817 24.2292C41.3348 24.2865 41.3296 24.3906 41.3973 24.5312C41.465 24.6719 41.6525 24.7604 41.7983 24.8438C41.8244 24.8594 41.939 24.7135 42.0171 24.6302C41.9129 24.4948 41.8348 24.3073 41.6942 24.2396ZM228.293 11.9062C228.205 11.875 228.137 11.8333 228.033 11.8177C228.142 11.9167 228.225 11.9323 228.293 11.9062ZM266.069 12.4896C266.533 12.5417 266.975 12.4635 266.923 11.8177C266.46 11.8177 266.001 11.8177 265.543 11.8177C265.47 12.2396 265.72 12.4531 266.069 12.4896ZM295.434 15.1198C295.845 15.2135 295.913 14.9062 295.892 14.5729C295.663 14.5729 295.429 14.5729 295.205 14.5729C295.278 14.7656 295.319 15.0938 295.434 15.1198ZM322.387 17.9375C322.481 17.9635 322.653 17.7448 322.788 17.6406C322.788 17.5417 322.788 17.4375 322.788 17.3333C322.606 17.3958 322.413 17.4323 322.257 17.5312C322.08 17.6458 322.121 17.8542 322.387 17.9375ZM260.871 14.7708C260.694 14.8906 260.736 15.0938 261.001 15.1771C261.095 15.2083 261.272 14.9896 261.403 14.8854C261.403 14.7812 261.403 14.6823 261.403 14.5729C261.231 14.6406 261.033 14.6771 260.871 14.7708ZM181.689 14.4844C181.783 14.5156 181.96 14.2969 182.095 14.1927C182.095 14.0885 182.095 13.9896 182.095 13.8802C181.913 13.9479 181.72 13.9844 181.564 14.0781C181.376 14.1979 181.423 14.401 181.689 14.4844ZM308.767 16.0833C308.606 16.1198 308.46 16.224 308.304 16.3021C308.387 16.3802 308.46 16.4531 308.548 16.5469C308.694 16.4688 308.845 16.3854 308.996 16.3021C308.918 16.224 308.83 16.0729 308.767 16.0833ZM256.46 12.9323C256.121 13.3125 255.876 13.9115 255.205 13.8802C255.205 13.9948 255.158 14.1458 255.21 14.2188C255.929 15.2344 256.637 13.75 257.054 14.1042C257.658 14.6198 258.626 14.4427 258.991 15.2552C259.236 15.0156 259.455 14.75 259.725 14.5417C260.158 14.2031 259.694 14.0573 259.632 13.8021C259.403 12.901 257.955 13.6354 257.96 12.5C257.423 12.5156 256.908 12.4219 256.46 12.9323ZM263.022 12.3646C263.434 12.4531 263.501 12.151 263.475 11.8177C263.246 11.8177 263.017 11.8177 262.788 11.8177C262.866 12.0052 262.908 12.3385 263.022 12.3646ZM266.475 13.3333C266.371 13.349 266.278 13.6771 266.246 13.875C266.189 14.2031 266.283 14.5104 266.689 14.4427C266.793 14.4219 266.85 14.0885 266.929 13.901C266.955 13.5625 266.876 13.2604 266.475 13.3333ZM300.033 15.6094C300.111 15.6875 300.199 15.8333 300.257 15.8281C300.418 15.7865 300.564 15.6875 300.72 15.6094C300.642 15.5312 300.564 15.4583 300.475 15.3646C300.33 15.4427 300.179 15.526 300.033 15.6094ZM268.736 13.2969C268.6 13.3802 268.33 13.4635 268.324 13.5625C268.298 13.8698 268.147 14.2656 268.543 14.4427C268.637 14.4844 268.96 14.2969 268.97 14.2031C268.986 13.901 269.142 13.526 268.736 13.2969ZM261.392 14.25C261.371 14.5781 261.47 14.7552 261.715 14.5573C262.09 14.2448 262.376 13.8281 262.699 13.4531C262.517 13.3646 262.335 13.2812 262.153 13.1875C261.366 13.1615 261.423 13.7031 261.392 14.25ZM277.283 13.8802C276.944 13.8542 276.642 13.9271 276.715 14.3333C276.731 14.4427 277.059 14.5312 277.257 14.5625C277.585 14.6198 277.892 14.526 277.819 14.1198C277.809 14.0156 277.47 13.9635 277.283 13.8802ZM283.85 13.2188C283.705 13.2396 283.491 13.5208 283.501 13.6667C283.517 13.9531 283.668 14.2344 283.767 14.5156C284.09 14.401 284.22 14.1719 284.163 13.8021C284.012 13.651 284.496 13.1094 283.85 13.2188Z"
        fill="#8000FF" />
</svg>
    