<svg width="40" height="40" viewBox="0 0 40 40" fill="none" xmlns="http://www.w3.org/2000/svg">
<path d="M40 4.73386C38.5254 5.53946 36.9449 6.08036 35.2833 6.32588C36.9792 5.07528 38.2823 3.0958 38.8933 0.740379C37.3096 1.89507 35.5483 2.7352 33.6809 3.18787C32.1846 1.22374 30.0522 0 27.6923 0C23.1595 0 19.4841 4.51903 19.4841 10.0969C19.4841 10.8871 19.5589 11.6582 19.6992 12.3986C12.8782 11.9766 6.83345 7.95626 2.78388 1.84521C2.07622 3.34133 1.67407 5.07528 1.67407 6.92433C1.67407 10.4268 3.12057 13.5187 5.32461 15.3333C3.97787 15.2796 2.71218 14.8231 1.60549 14.0673C1.60549 14.1095 1.60549 14.1517 1.60549 14.1939C1.60549 19.0889 4.43614 23.1668 8.18642 24.099C7.50059 24.3292 6.77422 24.4519 6.02603 24.4519C5.49606 24.4519 4.98169 24.3905 4.47977 24.2678C5.52724 28.2766 8.5574 31.2036 12.1456 31.2842C9.33988 33.9925 5.80157 35.6037 1.95464 35.6037C1.29063 35.6037 0.639076 35.5577 0 35.4618C3.62871 38.3313 7.94326 40 12.5789 40C27.6736 40 35.9286 24.613 35.9286 11.2707C35.9286 10.8334 35.9193 10.3923 35.9068 9.9626C37.5092 8.53937 38.8995 6.75937 40 4.73386Z" fill="#BABABA"/>
</svg>
